<svg width="119" height="25" viewBox="0 0 119 25" fill="none" xmlns="http://www.w3.org/2000/svg">
<g clip-path="url(#clip0_36_245)">
<path d="M55.89 11.7838C55.6317 11.7878 55.3858 11.8943 55.2063 12.0798C55.0264 12.2654 54.9273 12.5149 54.9309 12.7735C54.9309 18.2424 50.6934 22.6911 45.4916 22.6911C40.2903 22.6911 36.0359 18.2407 36.0359 12.7735C36.0359 7.30633 40.2736 2.85593 45.4833 2.85593C45.7412 2.85148 45.9867 2.74481 46.1662 2.55929C46.3457 2.37377 46.4444 2.12454 46.4409 1.8662C46.4444 1.60786 46.3457 1.35862 46.1662 1.1731C45.9867 0.98758 45.7412 0.880909 45.4833 0.876465C39.2182 0.876465 34.1211 6.21359 34.1211 12.7735C34.1211 19.3334 39.2182 24.6705 45.4833 24.6705C51.7485 24.6705 56.8476 19.3334 56.8476 12.7735C56.8512 12.5152 56.7521 12.2659 56.573 12.0804C56.3935 11.8949 56.1479 11.7882 55.89 11.7838Z" fill="black"/>
<path d="M72.4795 0.876465C66.2143 0.876465 61.1172 6.21359 61.1172 12.7735C61.1172 19.3334 66.2143 24.6705 72.4795 24.6705C78.7443 24.6705 83.8418 19.3334 83.8418 12.7735C83.8418 6.21359 78.7511 0.876465 72.4795 0.876465ZM81.9183 12.7735C81.9183 18.2424 77.6809 22.6911 72.4795 22.6911C67.2777 22.6911 63.0403 18.2407 63.0403 12.7735C63.0403 7.30633 67.2761 2.85593 72.4795 2.85593C77.6825 2.85593 81.9334 7.30466 81.9334 12.7735H81.9183Z" fill="black"/>
<path d="M17.9284 4.14844C15.1911 1.9325 10.957 0.811035 5.34579 0.811035H1.53308C0.870656 0.811035 0.568945 1.27381 0.568945 1.7045C0.568945 2.13518 0.870656 2.59964 1.53308 2.59964H5.34579C10.5002 2.59964 14.3079 3.58599 16.6609 5.53169C18.6583 7.16661 19.6713 9.56324 19.6713 12.654C19.6713 15.7448 18.66 18.1415 16.6576 19.7781C14.3079 21.722 10.5019 22.7084 5.34579 22.7084H2.42642V11.0242C2.43015 10.9036 2.40921 10.7834 2.3649 10.6712C2.32059 10.559 2.25383 10.457 2.16873 10.3716C2.08364 10.2861 1.982 10.2191 1.87008 10.1744C1.75816 10.1298 1.63831 10.1086 1.51791 10.1121C1.39416 10.1047 1.27021 10.1229 1.15374 10.1655C1.03728 10.208 0.930789 10.2741 0.840866 10.3596C0.750944 10.4451 0.679512 10.5482 0.630997 10.6626C0.582481 10.7769 0.557917 10.8999 0.558832 11.0242V23.5647C0.553941 23.778 0.624382 23.9862 0.757726 24.1525C0.8516 24.2656 0.970648 24.3551 1.10531 24.4138C1.23997 24.4724 1.38648 24.4986 1.53308 24.4903H5.34579C10.9587 24.4903 15.1928 23.3671 17.9301 21.1529C20.3657 19.1599 21.6013 16.2971 21.6013 12.6473C21.6013 8.99744 20.3657 6.14141 17.9284 4.14844Z" fill="black"/>
<path d="M27.7895 0.810699C27.6659 0.80329 27.5422 0.821394 27.4259 0.863882C27.3097 0.906366 27.2033 0.972334 27.1136 1.05769C27.0238 1.14304 26.9525 1.24597 26.9041 1.36008C26.8557 1.47419 26.8311 1.59705 26.8321 1.72105V23.5846C26.8321 23.8337 26.9308 24.0726 27.1066 24.2486C27.2823 24.4248 27.5207 24.5237 27.7692 24.5237C28.0178 24.5237 28.2562 24.4248 28.4319 24.2486C28.6077 24.0726 28.7064 23.8337 28.7064 23.5846V1.72105C28.7099 1.59981 28.6886 1.47914 28.6437 1.36652C28.5987 1.2539 28.5312 1.15174 28.4452 1.06637C28.3592 0.981005 28.2566 0.914259 28.1438 0.870279C28.031 0.826294 27.9104 0.806017 27.7895 0.810699Z" fill="black"/>
<path d="M109.68 1.72283L109.665 1.68736C109.596 1.53255 109.485 1.40103 109.343 1.30871C109.201 1.21638 109.035 1.16722 108.866 1.16716H108.834C108.656 1.16589 108.483 1.22275 108.34 1.32912C108.198 1.4355 108.094 1.58557 108.044 1.75661L103.355 13.2838L98.6839 1.71438L98.6704 1.68398C98.5968 1.52675 98.4794 1.39425 98.3321 1.30252C98.1848 1.2108 98.0145 1.16379 97.841 1.16716C97.669 1.16765 97.5007 1.21881 97.357 1.31429C97.2133 1.40976 97.1011 1.54536 97.0338 1.70425L88.2402 23.5155C88.1677 23.6333 88.1295 23.7689 88.1291 23.9073C88.1244 24.1135 88.1916 24.3148 88.319 24.4769C88.4459 24.639 88.6254 24.7518 88.8264 24.796C89.0274 24.8403 89.2376 24.8133 89.4206 24.7196C89.6041 24.6259 89.7494 24.4713 89.8314 24.2823L97.843 4.44374L102.404 15.6534L99.2336 23.5155C99.1607 23.6333 99.1225 23.7689 99.1221 23.9073C99.1169 24.1141 99.1842 24.3161 99.3116 24.4787C99.4389 24.6414 99.6188 24.7544 99.8206 24.7986C100.022 24.8427 100.233 24.8152 100.416 24.7207C100.6 24.6262 100.745 24.4706 100.826 24.2806L103.355 18.0314L105.883 24.2806L105.895 24.3093C105.98 24.4955 106.126 24.6466 106.31 24.7371C106.493 24.8276 106.702 24.8519 106.901 24.8061C107.1 24.7603 107.278 24.6471 107.403 24.4855C107.529 24.3239 107.595 24.1239 107.59 23.9191C107.591 23.7814 107.553 23.6464 107.481 23.529L104.302 15.6534L108.865 4.44374L116.869 24.2688L116.881 24.2975C116.966 24.4837 117.113 24.6347 117.296 24.7252C117.48 24.8158 117.688 24.8401 117.887 24.7943C118.087 24.7485 118.264 24.6352 118.39 24.4737C118.515 24.3121 118.581 24.1121 118.577 23.9073V23.7064L109.68 1.72283Z" fill="black"/>
</g>
<defs>
<clipPath id="clip0_36_245">
<rect width="119" height="25" fill="white"/>
</clipPath>
</defs>
</svg>
