<svg width="493" height="381" viewBox="0 0 493 381" fill="none" xmlns="http://www.w3.org/2000/svg">
<g clip-path="url(#clip0_36_393)">
<circle cx="202" cy="269" r="29" fill="#23B6FF"/>
<circle cx="240.5" cy="317.5" r="15.5" fill="#23B6FF"/>
<path d="M389.5 235C389.5 240.097 385.748 244.231 378.591 247.562C371.449 250.885 361.074 253.328 348.195 255.101C322.445 258.647 286.852 259.5 247.5 259.5C208.153 259.5 172.559 258.221 146.81 254.463C133.93 252.583 123.551 250.087 116.405 246.841C109.229 243.58 105.5 239.655 105.5 235C105.5 233.482 106.376 231.923 108.221 230.341C110.062 228.763 112.807 227.217 116.39 225.731C123.551 222.76 133.944 220.074 146.824 217.815C172.575 213.297 208.17 210.5 247.5 210.5C286.83 210.5 322.425 213.297 348.176 217.815C361.056 220.074 371.449 222.76 378.61 225.731C382.193 227.217 384.938 228.763 386.779 230.341C388.624 231.923 389.5 233.482 389.5 235Z" fill="#F4F6F7" stroke="black"/>
<path d="M442.5 199C442.5 201.362 441.237 203.732 438.689 206.09C436.141 208.446 432.355 210.743 427.432 212.946C417.592 217.349 403.32 221.327 385.646 224.672C350.307 231.36 301.464 235.5 247.5 235.5C193.536 235.5 144.693 231.36 109.354 224.672C91.6797 221.327 77.4084 217.349 67.5676 212.946C62.6455 210.743 58.8594 208.446 56.3114 206.09C53.7627 203.732 52.5 201.362 52.5 199C52.5 196.638 53.7627 194.268 56.3114 191.91C58.8594 189.554 62.6455 187.257 67.5676 185.054C77.4084 180.651 91.6797 176.673 109.354 173.328C144.693 166.64 193.536 162.5 247.5 162.5C301.464 162.5 350.307 166.64 385.646 173.328C403.32 176.673 417.592 180.651 427.432 185.054C432.355 187.257 436.141 189.554 438.689 191.91C441.237 194.268 442.5 196.638 442.5 199Z" fill="#F4F6F7" stroke="black"/>
<path d="M163.047 369.015H159.804L159.786 367.652H162.73C163.217 367.652 163.642 367.57 164.005 367.406C164.368 367.242 164.649 367.008 164.849 366.703C165.054 366.393 165.156 366.023 165.156 365.596C165.156 365.127 165.065 364.746 164.884 364.453C164.708 364.154 164.436 363.938 164.066 363.803C163.703 363.662 163.24 363.592 162.678 363.592H160.182V375H158.485V362.203H162.678C163.334 362.203 163.92 362.271 164.436 362.405C164.951 362.534 165.388 362.739 165.745 363.021C166.108 363.296 166.384 363.647 166.571 364.075C166.759 364.503 166.853 365.016 166.853 365.613C166.853 366.141 166.718 366.618 166.448 367.046C166.179 367.468 165.804 367.813 165.323 368.083C164.849 368.353 164.292 368.525 163.653 368.602L163.047 369.015ZM162.968 375H159.136L160.094 373.62H162.968C163.507 373.62 163.964 373.526 164.339 373.339C164.72 373.151 165.01 372.888 165.209 372.548C165.408 372.202 165.508 371.795 165.508 371.326C165.508 370.852 165.423 370.441 165.253 370.096C165.083 369.75 164.816 369.483 164.453 369.296C164.09 369.108 163.621 369.015 163.047 369.015H160.63L160.647 367.652H163.952L164.312 368.145C164.928 368.197 165.449 368.373 165.877 368.672C166.305 368.965 166.63 369.34 166.853 369.797C167.081 370.254 167.195 370.758 167.195 371.309C167.195 372.105 167.02 372.779 166.668 373.33C166.322 373.875 165.833 374.291 165.2 374.578C164.567 374.859 163.823 375 162.968 375ZM175.905 369.612V370.931H170.878V369.612H175.905ZM171.221 365.49V375H169.595V365.49H171.221ZM177.224 365.49V375H175.589V365.49H177.224ZM183.789 375.176C183.127 375.176 182.526 375.064 181.987 374.842C181.454 374.613 180.994 374.294 180.607 373.884C180.227 373.474 179.934 372.987 179.729 372.425C179.523 371.862 179.421 371.247 179.421 370.579V370.21C179.421 369.437 179.535 368.748 179.764 368.145C179.992 367.535 180.303 367.02 180.695 366.598C181.088 366.176 181.533 365.856 182.031 365.64C182.529 365.423 183.045 365.314 183.578 365.314C184.258 365.314 184.844 365.432 185.336 365.666C185.834 365.9 186.241 366.229 186.558 366.65C186.874 367.066 187.108 367.559 187.261 368.127C187.413 368.689 187.489 369.305 187.489 369.973V370.702H180.388V369.375H185.863V369.252C185.84 368.83 185.752 368.42 185.6 368.021C185.453 367.623 185.219 367.295 184.896 367.037C184.574 366.779 184.135 366.65 183.578 366.65C183.209 366.65 182.869 366.729 182.559 366.888C182.248 367.04 181.981 367.269 181.759 367.573C181.536 367.878 181.363 368.25 181.24 368.689C181.117 369.129 181.056 369.636 181.056 370.21V370.579C181.056 371.03 181.117 371.455 181.24 371.854C181.369 372.246 181.554 372.592 181.794 372.891C182.04 373.189 182.336 373.424 182.682 373.594C183.033 373.764 183.432 373.849 183.877 373.849C184.451 373.849 184.938 373.731 185.336 373.497C185.734 373.263 186.083 372.949 186.382 372.557L187.366 373.339C187.161 373.649 186.9 373.945 186.584 374.227C186.268 374.508 185.878 374.736 185.415 374.912C184.958 375.088 184.416 375.176 183.789 375.176ZM189.528 365.49H191.154V373.664H194.635V365.49H196.27V373.664H199.741V365.49H201.367V375H189.528V365.49ZM210.411 369.612V370.931H205.384V369.612H210.411ZM205.727 365.49V375H204.101V365.49H205.727ZM211.729 365.49V375H210.095V365.49H211.729ZM216.273 370.465H218.031L215.28 375H213.522L216.273 370.465ZM217.636 365.49H221.608V375H219.982V366.809H217.636C217.173 366.809 216.795 366.888 216.502 367.046C216.209 367.198 215.995 367.397 215.86 367.644C215.726 367.89 215.658 368.145 215.658 368.408C215.658 368.666 215.72 368.915 215.843 369.155C215.966 369.39 216.159 369.583 216.423 369.735C216.687 369.888 217.026 369.964 217.442 369.964H220.422V371.3H217.442C216.897 371.3 216.414 371.227 215.992 371.08C215.57 370.934 215.213 370.731 214.92 370.474C214.627 370.21 214.404 369.902 214.252 369.551C214.1 369.193 214.023 368.807 214.023 368.391C214.023 367.975 214.103 367.591 214.261 367.239C214.425 366.888 214.659 366.58 214.964 366.316C215.274 366.053 215.652 365.851 216.098 365.71C216.549 365.563 217.062 365.49 217.636 365.49ZM226.152 370.465H227.91L225.159 375H223.401L226.152 370.465ZM227.515 365.49H231.487V375H229.861V366.809H227.515C227.052 366.809 226.674 366.888 226.381 367.046C226.088 367.198 225.874 367.397 225.739 367.644C225.604 367.89 225.537 368.145 225.537 368.408C225.537 368.666 225.599 368.915 225.722 369.155C225.845 369.39 226.038 369.583 226.302 369.735C226.565 369.888 226.905 369.964 227.321 369.964H230.301V371.3H227.321C226.776 371.3 226.293 371.227 225.871 371.08C225.449 370.934 225.092 370.731 224.799 370.474C224.506 370.21 224.283 369.902 224.131 369.551C223.979 369.193 223.902 368.807 223.902 368.391C223.902 367.975 223.981 367.591 224.14 367.239C224.304 366.888 224.538 366.58 224.843 366.316C225.153 366.053 225.531 365.851 225.977 365.71C226.428 365.563 226.94 365.49 227.515 365.49ZM240.197 367.318V378.656H238.562V365.49H240.057L240.197 367.318ZM246.604 370.166V370.351C246.604 371.042 246.522 371.684 246.358 372.275C246.194 372.861 245.954 373.371 245.638 373.805C245.327 374.238 244.943 374.575 244.486 374.815C244.029 375.056 243.505 375.176 242.913 375.176C242.31 375.176 241.776 375.076 241.313 374.877C240.851 374.678 240.458 374.388 240.136 374.007C239.813 373.626 239.556 373.169 239.362 372.636C239.175 372.103 239.046 371.502 238.976 370.834V369.85C239.046 369.146 239.178 368.517 239.371 367.96C239.564 367.403 239.819 366.929 240.136 366.536C240.458 366.138 240.848 365.836 241.305 365.631C241.762 365.42 242.289 365.314 242.887 365.314C243.484 365.314 244.015 365.432 244.478 365.666C244.94 365.895 245.33 366.223 245.646 366.65C245.963 367.078 246.2 367.591 246.358 368.188C246.522 368.78 246.604 369.439 246.604 370.166ZM244.97 370.351V370.166C244.97 369.691 244.92 369.246 244.82 368.83C244.721 368.408 244.565 368.039 244.354 367.723C244.149 367.4 243.886 367.148 243.563 366.967C243.241 366.779 242.857 366.686 242.412 366.686C242.002 366.686 241.645 366.756 241.34 366.896C241.041 367.037 240.786 367.228 240.575 367.468C240.364 367.702 240.191 367.972 240.057 368.276C239.928 368.575 239.831 368.886 239.767 369.208V371.484C239.884 371.895 240.048 372.281 240.259 372.645C240.47 373.002 240.751 373.292 241.103 373.515C241.454 373.731 241.896 373.84 242.43 373.84C242.869 373.84 243.247 373.749 243.563 373.567C243.886 373.38 244.149 373.125 244.354 372.803C244.565 372.48 244.721 372.111 244.82 371.695C244.92 371.273 244.97 370.825 244.97 370.351ZM254.286 373.374V368.479C254.286 368.104 254.21 367.778 254.058 367.503C253.911 367.222 253.688 367.005 253.39 366.853C253.091 366.7 252.722 366.624 252.282 366.624C251.872 366.624 251.512 366.694 251.201 366.835C250.896 366.976 250.656 367.16 250.48 367.389C250.311 367.617 250.226 367.863 250.226 368.127H248.6C248.6 367.787 248.688 367.45 248.863 367.116C249.039 366.782 249.291 366.48 249.619 366.211C249.953 365.936 250.352 365.719 250.814 365.561C251.283 365.396 251.805 365.314 252.379 365.314C253.07 365.314 253.68 365.432 254.207 365.666C254.74 365.9 255.156 366.255 255.455 366.729C255.76 367.198 255.912 367.787 255.912 368.496V372.926C255.912 373.242 255.938 373.579 255.991 373.937C256.05 374.294 256.135 374.602 256.246 374.859V375H254.55C254.468 374.812 254.403 374.563 254.356 374.253C254.31 373.937 254.286 373.644 254.286 373.374ZM254.567 369.234L254.585 370.377H252.941C252.479 370.377 252.065 370.415 251.702 370.491C251.339 370.562 251.034 370.67 250.788 370.816C250.542 370.963 250.354 371.147 250.226 371.37C250.097 371.587 250.032 371.842 250.032 372.135C250.032 372.434 250.1 372.706 250.234 372.952C250.369 373.198 250.571 373.395 250.841 373.541C251.116 373.682 251.453 373.752 251.852 373.752C252.35 373.752 252.789 373.646 253.17 373.436C253.551 373.225 253.853 372.967 254.075 372.662C254.304 372.357 254.427 372.062 254.444 371.774L255.139 372.557C255.098 372.803 254.986 373.075 254.805 373.374C254.623 373.673 254.38 373.96 254.075 374.235C253.776 374.505 253.419 374.73 253.003 374.912C252.593 375.088 252.13 375.176 251.614 375.176C250.97 375.176 250.404 375.05 249.918 374.798C249.438 374.546 249.062 374.209 248.793 373.787C248.529 373.359 248.397 372.882 248.397 372.354C248.397 371.845 248.497 371.396 248.696 371.01C248.896 370.617 249.183 370.292 249.558 370.034C249.933 369.771 250.384 369.571 250.911 369.437C251.438 369.302 252.027 369.234 252.678 369.234H254.567ZM262.021 370.456H260.271V369.454H261.889C262.34 369.454 262.697 369.398 262.961 369.287C263.225 369.17 263.412 369.009 263.523 368.804C263.635 368.599 263.69 368.358 263.69 368.083C263.69 367.837 263.626 367.605 263.497 367.389C263.374 367.166 263.175 366.987 262.899 366.853C262.624 366.712 262.255 366.642 261.792 366.642C261.417 366.642 261.077 366.709 260.772 366.844C260.468 366.973 260.225 367.151 260.043 367.38C259.867 367.603 259.779 367.854 259.779 368.136H258.153C258.153 367.556 258.317 367.058 258.646 366.642C258.979 366.22 259.422 365.895 259.973 365.666C260.529 365.438 261.136 365.323 261.792 365.323C262.343 365.323 262.835 365.385 263.269 365.508C263.708 365.625 264.08 365.801 264.385 366.035C264.689 366.264 264.921 366.551 265.079 366.896C265.243 367.236 265.325 367.632 265.325 368.083C265.325 368.405 265.249 368.71 265.097 368.997C264.944 369.284 264.725 369.539 264.438 369.762C264.15 369.979 263.802 370.148 263.392 370.271C262.987 370.395 262.53 370.456 262.021 370.456ZM260.271 369.841H262.021C262.589 369.841 263.09 369.896 263.523 370.008C263.957 370.113 264.32 370.271 264.613 370.482C264.906 370.693 265.126 370.954 265.272 371.265C265.425 371.569 265.501 371.921 265.501 372.319C265.501 372.765 265.41 373.166 265.229 373.523C265.053 373.875 264.801 374.174 264.473 374.42C264.145 374.666 263.752 374.854 263.295 374.982C262.844 375.111 262.343 375.176 261.792 375.176C261.177 375.176 260.579 375.07 259.999 374.859C259.419 374.648 258.941 374.323 258.566 373.884C258.191 373.438 258.004 372.873 258.004 372.188H259.63C259.63 372.475 259.721 372.747 259.902 373.005C260.084 373.263 260.336 373.471 260.658 373.629C260.986 373.787 261.364 373.866 261.792 373.866C262.249 373.866 262.63 373.796 262.935 373.655C263.239 373.515 263.468 373.327 263.62 373.093C263.778 372.858 263.857 372.604 263.857 372.328C263.857 371.971 263.787 371.684 263.646 371.467C263.506 371.25 263.289 371.092 262.996 370.992C262.709 370.887 262.34 370.834 261.889 370.834H260.271V369.841ZM269.236 367.318V378.656H267.602V365.49H269.096L269.236 367.318ZM275.644 370.166V370.351C275.644 371.042 275.562 371.684 275.397 372.275C275.233 372.861 274.993 373.371 274.677 373.805C274.366 374.238 273.982 374.575 273.525 374.815C273.068 375.056 272.544 375.176 271.952 375.176C271.349 375.176 270.815 375.076 270.353 374.877C269.89 374.678 269.497 374.388 269.175 374.007C268.853 373.626 268.595 373.169 268.401 372.636C268.214 372.103 268.085 371.502 268.015 370.834V369.85C268.085 369.146 268.217 368.517 268.41 367.96C268.604 367.403 268.858 366.929 269.175 366.536C269.497 366.138 269.887 365.836 270.344 365.631C270.801 365.42 271.328 365.314 271.926 365.314C272.523 365.314 273.054 365.432 273.517 365.666C273.979 365.895 274.369 366.223 274.686 366.65C275.002 367.078 275.239 367.591 275.397 368.188C275.562 368.78 275.644 369.439 275.644 370.166ZM274.009 370.351V370.166C274.009 369.691 273.959 369.246 273.859 368.83C273.76 368.408 273.604 368.039 273.394 367.723C273.188 367.4 272.925 367.148 272.603 366.967C272.28 366.779 271.896 366.686 271.451 366.686C271.041 366.686 270.684 366.756 270.379 366.896C270.08 367.037 269.825 367.228 269.614 367.468C269.403 367.702 269.23 367.972 269.096 368.276C268.967 368.575 268.87 368.886 268.806 369.208V371.484C268.923 371.895 269.087 372.281 269.298 372.645C269.509 373.002 269.79 373.292 270.142 373.515C270.493 373.731 270.936 373.84 271.469 373.84C271.908 373.84 272.286 373.749 272.603 373.567C272.925 373.38 273.188 373.125 273.394 372.803C273.604 372.48 273.76 372.111 273.859 371.695C273.959 371.273 274.009 370.825 274.009 370.351ZM283.325 373.374V368.479C283.325 368.104 283.249 367.778 283.097 367.503C282.95 367.222 282.728 367.005 282.429 366.853C282.13 366.7 281.761 366.624 281.321 366.624C280.911 366.624 280.551 366.694 280.24 366.835C279.936 366.976 279.695 367.16 279.52 367.389C279.35 367.617 279.265 367.863 279.265 368.127H277.639C277.639 367.787 277.727 367.45 277.902 367.116C278.078 366.782 278.33 366.48 278.658 366.211C278.992 365.936 279.391 365.719 279.854 365.561C280.322 365.396 280.844 365.314 281.418 365.314C282.109 365.314 282.719 365.432 283.246 365.666C283.779 365.9 284.195 366.255 284.494 366.729C284.799 367.198 284.951 367.787 284.951 368.496V372.926C284.951 373.242 284.978 373.579 285.03 373.937C285.089 374.294 285.174 374.602 285.285 374.859V375H283.589C283.507 374.812 283.442 374.563 283.396 374.253C283.349 373.937 283.325 373.644 283.325 373.374ZM283.606 369.234L283.624 370.377H281.98C281.518 370.377 281.104 370.415 280.741 370.491C280.378 370.562 280.073 370.67 279.827 370.816C279.581 370.963 279.394 371.147 279.265 371.37C279.136 371.587 279.071 371.842 279.071 372.135C279.071 372.434 279.139 372.706 279.273 372.952C279.408 373.198 279.61 373.395 279.88 373.541C280.155 373.682 280.492 373.752 280.891 373.752C281.389 373.752 281.828 373.646 282.209 373.436C282.59 373.225 282.892 372.967 283.114 372.662C283.343 372.357 283.466 372.062 283.483 371.774L284.178 372.557C284.137 372.803 284.025 373.075 283.844 373.374C283.662 373.673 283.419 373.96 283.114 374.235C282.815 374.505 282.458 374.73 282.042 374.912C281.632 375.088 281.169 375.176 280.653 375.176C280.009 375.176 279.443 375.05 278.957 374.798C278.477 374.546 278.102 374.209 277.832 373.787C277.568 373.359 277.437 372.882 277.437 372.354C277.437 371.845 277.536 371.396 277.735 371.01C277.935 370.617 278.222 370.292 278.597 370.034C278.972 369.771 279.423 369.571 279.95 369.437C280.478 369.302 281.066 369.234 281.717 369.234H283.606ZM293.608 361.351H294.944C294.944 361.925 294.856 362.382 294.681 362.722C294.505 363.056 294.265 363.313 293.96 363.495C293.661 363.677 293.321 363.814 292.94 363.908C292.565 364.002 292.176 364.093 291.771 364.181C291.268 364.286 290.799 364.453 290.365 364.682C289.938 364.904 289.568 365.221 289.258 365.631C288.953 366.041 288.728 366.574 288.581 367.23C288.44 367.887 288.402 368.698 288.467 369.665V370.474H287.131V369.665C287.131 368.581 287.233 367.635 287.438 366.826C287.649 366.018 287.945 365.335 288.326 364.778C288.707 364.222 289.158 363.779 289.68 363.451C290.207 363.123 290.787 362.897 291.42 362.774C291.877 362.687 292.27 362.593 292.598 362.493C292.926 362.388 293.175 362.247 293.345 362.071C293.521 361.896 293.608 361.655 293.608 361.351ZM291.684 366.035C292.305 366.035 292.858 366.144 293.345 366.36C293.831 366.577 294.244 366.879 294.584 367.266C294.924 367.652 295.182 368.109 295.357 368.637C295.539 369.158 295.63 369.727 295.63 370.342V370.535C295.63 371.197 295.533 371.812 295.34 372.381C295.152 372.943 294.874 373.436 294.505 373.857C294.142 374.273 293.696 374.599 293.169 374.833C292.647 375.067 292.053 375.185 291.385 375.185C290.717 375.185 290.119 375.067 289.592 374.833C289.07 374.599 288.625 374.273 288.256 373.857C287.887 373.436 287.605 372.943 287.412 372.381C287.225 371.812 287.131 371.197 287.131 370.535V370.342C287.131 370.195 287.157 370.052 287.21 369.911C287.263 369.771 287.327 369.627 287.403 369.48C287.485 369.334 287.559 369.179 287.623 369.015C287.84 368.487 288.136 367.998 288.511 367.547C288.892 367.096 289.346 366.732 289.873 366.457C290.406 366.176 291.01 366.035 291.684 366.035ZM291.367 367.362C290.77 367.362 290.277 367.5 289.891 367.775C289.51 368.051 289.226 368.417 289.038 368.874C288.851 369.325 288.757 369.814 288.757 370.342V370.535C288.757 370.98 288.81 371.402 288.915 371.801C289.021 372.199 289.179 372.554 289.39 372.864C289.606 373.169 289.879 373.409 290.207 373.585C290.541 373.761 290.934 373.849 291.385 373.849C291.836 373.849 292.226 373.761 292.554 373.585C292.882 373.409 293.151 373.169 293.362 372.864C293.573 372.554 293.731 372.199 293.837 371.801C293.942 371.402 293.995 370.98 293.995 370.535V370.342C293.995 369.943 293.942 369.565 293.837 369.208C293.731 368.851 293.57 368.534 293.354 368.259C293.143 367.983 292.87 367.767 292.536 367.608C292.208 367.444 291.818 367.362 291.367 367.362ZM297.045 370.351V370.148C297.045 369.463 297.145 368.827 297.344 368.241C297.543 367.649 297.83 367.137 298.205 366.703C298.58 366.264 299.034 365.924 299.567 365.684C300.101 365.438 300.698 365.314 301.36 365.314C302.028 365.314 302.629 365.438 303.162 365.684C303.701 365.924 304.158 366.264 304.533 366.703C304.914 367.137 305.204 367.649 305.403 368.241C305.603 368.827 305.702 369.463 305.702 370.148V370.351C305.702 371.036 305.603 371.672 305.403 372.258C305.204 372.844 304.914 373.356 304.533 373.796C304.158 374.229 303.704 374.569 303.171 374.815C302.644 375.056 302.046 375.176 301.378 375.176C300.71 375.176 300.109 375.056 299.576 374.815C299.043 374.569 298.586 374.229 298.205 373.796C297.83 373.356 297.543 372.844 297.344 372.258C297.145 371.672 297.045 371.036 297.045 370.351ZM298.671 370.148V370.351C298.671 370.825 298.727 371.273 298.838 371.695C298.949 372.111 299.116 372.48 299.339 372.803C299.567 373.125 299.852 373.38 300.191 373.567C300.531 373.749 300.927 373.84 301.378 373.84C301.823 373.84 302.213 373.749 302.547 373.567C302.887 373.38 303.168 373.125 303.391 372.803C303.613 372.48 303.78 372.111 303.892 371.695C304.009 371.273 304.067 370.825 304.067 370.351V370.148C304.067 369.68 304.009 369.237 303.892 368.821C303.78 368.399 303.61 368.027 303.382 367.705C303.159 367.377 302.878 367.119 302.538 366.932C302.204 366.744 301.812 366.65 301.36 366.65C300.915 366.65 300.522 366.744 300.183 366.932C299.849 367.119 299.567 367.377 299.339 367.705C299.116 368.027 298.949 368.399 298.838 368.821C298.727 369.237 298.671 369.68 298.671 370.148ZM311.424 365.49V375H309.789V365.49H311.424ZM314.614 365.49V366.809H306.66V365.49H314.614ZM317.98 365.49V375H316.354V365.49H317.98ZM324.221 365.49L319.712 370.939H317.436L317.189 369.516H319.053L322.243 365.49H324.221ZM322.472 375L318.974 370.693L320.02 369.516L324.537 375H322.472ZM331.56 373.374V368.479C331.56 368.104 331.483 367.778 331.331 367.503C331.185 367.222 330.962 367.005 330.663 366.853C330.364 366.7 329.995 366.624 329.556 366.624C329.146 366.624 328.785 366.694 328.475 366.835C328.17 366.976 327.93 367.16 327.754 367.389C327.584 367.617 327.499 367.863 327.499 368.127H325.873C325.873 367.787 325.961 367.45 326.137 367.116C326.312 366.782 326.564 366.48 326.893 366.211C327.227 365.936 327.625 365.719 328.088 365.561C328.557 365.396 329.078 365.314 329.652 365.314C330.344 365.314 330.953 365.432 331.48 365.666C332.014 365.9 332.43 366.255 332.729 366.729C333.033 367.198 333.186 367.787 333.186 368.496V372.926C333.186 373.242 333.212 373.579 333.265 373.937C333.323 374.294 333.408 374.602 333.52 374.859V375H331.823C331.741 374.812 331.677 374.563 331.63 374.253C331.583 373.937 331.56 373.644 331.56 373.374ZM331.841 369.234L331.858 370.377H330.215C329.752 370.377 329.339 370.415 328.976 370.491C328.612 370.562 328.308 370.67 328.062 370.816C327.815 370.963 327.628 371.147 327.499 371.37C327.37 371.587 327.306 371.842 327.306 372.135C327.306 372.434 327.373 372.706 327.508 372.952C327.643 373.198 327.845 373.395 328.114 373.541C328.39 373.682 328.727 373.752 329.125 373.752C329.623 373.752 330.062 373.646 330.443 373.436C330.824 373.225 331.126 372.967 331.349 372.662C331.577 372.357 331.7 372.062 331.718 371.774L332.412 372.557C332.371 372.803 332.26 373.075 332.078 373.374C331.896 373.673 331.653 373.96 331.349 374.235C331.05 374.505 330.692 374.73 330.276 374.912C329.866 375.088 329.403 375.176 328.888 375.176C328.243 375.176 327.678 375.05 327.191 374.798C326.711 374.546 326.336 374.209 326.066 373.787C325.803 373.359 325.671 372.882 325.671 372.354C325.671 371.845 325.771 371.396 325.97 371.01C326.169 370.617 326.456 370.292 326.831 370.034C327.206 369.771 327.657 369.571 328.185 369.437C328.712 369.302 329.301 369.234 329.951 369.234H331.841Z" fill="black"/>
<path d="M146.047 27.0146H142.804L142.786 25.6523H145.73C146.217 25.6523 146.642 25.5703 147.005 25.4062C147.368 25.2422 147.649 25.0078 147.849 24.7031C148.054 24.3926 148.156 24.0234 148.156 23.5957C148.156 23.127 148.065 22.7461 147.884 22.4531C147.708 22.1543 147.436 21.9375 147.066 21.8027C146.703 21.6621 146.24 21.5918 145.678 21.5918H143.182V33H141.485V20.2031H145.678C146.334 20.2031 146.92 20.2705 147.436 20.4053C147.951 20.5342 148.388 20.7393 148.745 21.0205C149.108 21.2959 149.384 21.6475 149.571 22.0752C149.759 22.5029 149.853 23.0156 149.853 23.6133C149.853 24.1406 149.718 24.6182 149.448 25.0459C149.179 25.4678 148.804 25.8135 148.323 26.083C147.849 26.3525 147.292 26.5254 146.653 26.6016L146.047 27.0146ZM145.968 33H142.136L143.094 31.6201H145.968C146.507 31.6201 146.964 31.5264 147.339 31.3389C147.72 31.1514 148.01 30.8877 148.209 30.5479C148.408 30.2021 148.508 29.7949 148.508 29.3262C148.508 28.8516 148.423 28.4414 148.253 28.0957C148.083 27.75 147.816 27.4834 147.453 27.2959C147.09 27.1084 146.621 27.0146 146.047 27.0146H143.63L143.647 25.6523H146.952L147.312 26.1445C147.928 26.1973 148.449 26.373 148.877 26.6719C149.305 26.9648 149.63 27.3398 149.853 27.7969C150.081 28.2539 150.195 28.7578 150.195 29.3086C150.195 30.1055 150.02 30.7793 149.668 31.3301C149.322 31.875 148.833 32.291 148.2 32.5781C147.567 32.8594 146.823 33 145.968 33ZM158.905 27.6123V28.9307H153.878V27.6123H158.905ZM154.221 23.4902V33H152.595V23.4902H154.221ZM160.224 23.4902V33H158.589V23.4902H160.224ZM165.515 32.0156L168.16 23.4902H169.9L166.086 34.4678C165.998 34.7021 165.881 34.9541 165.734 35.2236C165.594 35.499 165.412 35.7598 165.189 36.0059C164.967 36.252 164.697 36.4512 164.381 36.6035C164.07 36.7617 163.698 36.8408 163.265 36.8408C163.136 36.8408 162.972 36.8232 162.772 36.7881C162.573 36.7529 162.433 36.7236 162.351 36.7002L162.342 35.3818C162.389 35.3877 162.462 35.3936 162.562 35.3994C162.667 35.4111 162.74 35.417 162.781 35.417C163.15 35.417 163.464 35.3672 163.722 35.2676C163.979 35.1738 164.196 35.0127 164.372 34.7842C164.554 34.5615 164.709 34.2539 164.838 33.8613L165.515 32.0156ZM163.572 23.4902L166.042 30.873L166.464 32.5869L165.295 33.1846L161.797 23.4902H163.572ZM175.244 23.4902V33H173.609V23.4902H175.244ZM178.435 23.4902V24.8086H170.48V23.4902H178.435ZM181.66 25.3184V36.6562H180.025V23.4902H181.52L181.66 25.3184ZM188.067 28.166V28.3506C188.067 29.042 187.985 29.6836 187.821 30.2754C187.657 30.8613 187.417 31.3711 187.101 31.8047C186.79 32.2383 186.406 32.5752 185.949 32.8154C185.492 33.0557 184.968 33.1758 184.376 33.1758C183.772 33.1758 183.239 33.0762 182.776 32.877C182.313 32.6777 181.921 32.3877 181.599 32.0068C181.276 31.626 181.019 31.1689 180.825 30.6357C180.638 30.1025 180.509 29.502 180.438 28.834V27.8496C180.509 27.1465 180.641 26.5166 180.834 25.96C181.027 25.4033 181.282 24.9287 181.599 24.5361C181.921 24.1377 182.311 23.8359 182.768 23.6309C183.225 23.4199 183.752 23.3145 184.35 23.3145C184.947 23.3145 185.478 23.4316 185.94 23.666C186.403 23.8945 186.793 24.2227 187.109 24.6504C187.426 25.0781 187.663 25.5908 187.821 26.1885C187.985 26.7803 188.067 27.4395 188.067 28.166ZM186.433 28.3506V28.166C186.433 27.6914 186.383 27.2461 186.283 26.8301C186.184 26.4082 186.028 26.0391 185.817 25.7227C185.612 25.4004 185.349 25.1484 185.026 24.9668C184.704 24.7793 184.32 24.6855 183.875 24.6855C183.465 24.6855 183.107 24.7559 182.803 24.8965C182.504 25.0371 182.249 25.2275 182.038 25.4678C181.827 25.7021 181.654 25.9717 181.52 26.2764C181.391 26.5752 181.294 26.8857 181.229 27.208V29.4844C181.347 29.8945 181.511 30.2812 181.722 30.6445C181.933 31.002 182.214 31.292 182.565 31.5146C182.917 31.7314 183.359 31.8398 183.893 31.8398C184.332 31.8398 184.71 31.749 185.026 31.5674C185.349 31.3799 185.612 31.125 185.817 30.8027C186.028 30.4805 186.184 30.1113 186.283 29.6953C186.383 29.2734 186.433 28.8252 186.433 28.3506ZM194.088 33.1758C193.426 33.1758 192.825 33.0645 192.286 32.8418C191.753 32.6133 191.293 32.2939 190.906 31.8838C190.525 31.4736 190.232 30.9873 190.027 30.4248C189.822 29.8623 189.72 29.2471 189.72 28.5791V28.21C189.72 27.4365 189.834 26.748 190.062 26.1445C190.291 25.5352 190.602 25.0195 190.994 24.5977C191.387 24.1758 191.832 23.8564 192.33 23.6396C192.828 23.4229 193.344 23.3145 193.877 23.3145C194.557 23.3145 195.143 23.4316 195.635 23.666C196.133 23.9004 196.54 24.2285 196.856 24.6504C197.173 25.0664 197.407 25.5586 197.56 26.127C197.712 26.6895 197.788 27.3047 197.788 27.9727V28.7021H190.687V27.375H196.162V27.252C196.139 26.8301 196.051 26.4199 195.898 26.0215C195.752 25.623 195.518 25.2949 195.195 25.0371C194.873 24.7793 194.434 24.6504 193.877 24.6504C193.508 24.6504 193.168 24.7295 192.857 24.8877C192.547 25.04 192.28 25.2686 192.058 25.5732C191.835 25.8779 191.662 26.25 191.539 26.6895C191.416 27.1289 191.354 27.6357 191.354 28.21V28.5791C191.354 29.0303 191.416 29.4551 191.539 29.8535C191.668 30.2461 191.853 30.5918 192.093 30.8906C192.339 31.1895 192.635 31.4238 192.98 31.5938C193.332 31.7637 193.73 31.8486 194.176 31.8486C194.75 31.8486 195.236 31.7314 195.635 31.4971C196.033 31.2627 196.382 30.9492 196.681 30.5566L197.665 31.3389C197.46 31.6494 197.199 31.9453 196.883 32.2266C196.566 32.5078 196.177 32.7363 195.714 32.9121C195.257 33.0879 194.715 33.1758 194.088 33.1758ZM206.138 27.6123V28.9307H201.11V27.6123H206.138ZM201.453 23.4902V33H199.827V23.4902H201.453ZM207.456 23.4902V33H205.821V23.4902H207.456ZM216.526 27.6123V28.9307H211.499V27.6123H216.526ZM211.842 23.4902V33H210.216V23.4902H211.842ZM217.845 23.4902V33H216.21V23.4902H217.845ZM222.389 28.4648H224.146L221.396 33H219.638L222.389 28.4648ZM223.751 23.4902H227.724V33H226.098V24.8086H223.751C223.288 24.8086 222.91 24.8877 222.617 25.0459C222.324 25.1982 222.11 25.3975 221.976 25.6436C221.841 25.8896 221.773 26.1445 221.773 26.4082C221.773 26.666 221.835 26.915 221.958 27.1553C222.081 27.3896 222.274 27.583 222.538 27.7354C222.802 27.8877 223.142 27.9639 223.558 27.9639H226.537V29.2998H223.558C223.013 29.2998 222.529 29.2266 222.107 29.0801C221.686 28.9336 221.328 28.7314 221.035 28.4736C220.742 28.21 220.52 27.9023 220.367 27.5508C220.215 27.1934 220.139 26.8066 220.139 26.3906C220.139 25.9746 220.218 25.5908 220.376 25.2393C220.54 24.8877 220.774 24.5801 221.079 24.3164C221.39 24.0527 221.768 23.8506 222.213 23.71C222.664 23.5635 223.177 23.4902 223.751 23.4902ZM232.268 28.4648H234.025L231.274 33H229.517L232.268 28.4648ZM233.63 23.4902H237.603V33H235.977V24.8086H233.63C233.167 24.8086 232.789 24.8877 232.496 25.0459C232.203 25.1982 231.989 25.3975 231.854 25.6436C231.72 25.8896 231.652 26.1445 231.652 26.4082C231.652 26.666 231.714 26.915 231.837 27.1553C231.96 27.3896 232.153 27.583 232.417 27.7354C232.681 27.8877 233.021 27.9639 233.437 27.9639H236.416V29.2998H233.437C232.892 29.2998 232.408 29.2266 231.986 29.0801C231.564 28.9336 231.207 28.7314 230.914 28.4736C230.621 28.21 230.398 27.9023 230.246 27.5508C230.094 27.1934 230.018 26.8066 230.018 26.3906C230.018 25.9746 230.097 25.5908 230.255 25.2393C230.419 24.8877 230.653 24.5801 230.958 24.3164C231.269 24.0527 231.646 23.8506 232.092 23.71C232.543 23.5635 233.056 23.4902 233.63 23.4902ZM246.312 25.3184V36.6562H244.678V23.4902H246.172L246.312 25.3184ZM252.72 28.166V28.3506C252.72 29.042 252.638 29.6836 252.474 30.2754C252.31 30.8613 252.069 31.3711 251.753 31.8047C251.442 32.2383 251.059 32.5752 250.602 32.8154C250.145 33.0557 249.62 33.1758 249.028 33.1758C248.425 33.1758 247.892 33.0762 247.429 32.877C246.966 32.6777 246.573 32.3877 246.251 32.0068C245.929 31.626 245.671 31.1689 245.478 30.6357C245.29 30.1025 245.161 29.502 245.091 28.834V27.8496C245.161 27.1465 245.293 26.5166 245.486 25.96C245.68 25.4033 245.935 24.9287 246.251 24.5361C246.573 24.1377 246.963 23.8359 247.42 23.6309C247.877 23.4199 248.404 23.3145 249.002 23.3145C249.6 23.3145 250.13 23.4316 250.593 23.666C251.056 23.8945 251.445 24.2227 251.762 24.6504C252.078 25.0781 252.315 25.5908 252.474 26.1885C252.638 26.7803 252.72 27.4395 252.72 28.166ZM251.085 28.3506V28.166C251.085 27.6914 251.035 27.2461 250.936 26.8301C250.836 26.4082 250.681 26.0391 250.47 25.7227C250.265 25.4004 250.001 25.1484 249.679 24.9668C249.356 24.7793 248.973 24.6855 248.527 24.6855C248.117 24.6855 247.76 24.7559 247.455 24.8965C247.156 25.0371 246.901 25.2275 246.69 25.4678C246.479 25.7021 246.307 25.9717 246.172 26.2764C246.043 26.5752 245.946 26.8857 245.882 27.208V29.4844C245.999 29.8945 246.163 30.2812 246.374 30.6445C246.585 31.002 246.866 31.292 247.218 31.5146C247.569 31.7314 248.012 31.8398 248.545 31.8398C248.984 31.8398 249.362 31.749 249.679 31.5674C250.001 31.3799 250.265 31.125 250.47 30.8027C250.681 30.4805 250.836 30.1113 250.936 29.6953C251.035 29.2734 251.085 28.8252 251.085 28.3506ZM260.401 31.374V26.4785C260.401 26.1035 260.325 25.7783 260.173 25.5029C260.026 25.2217 259.804 25.0049 259.505 24.8525C259.206 24.7002 258.837 24.624 258.397 24.624C257.987 24.624 257.627 24.6943 257.316 24.835C257.012 24.9756 256.771 25.1602 256.596 25.3887C256.426 25.6172 256.341 25.8633 256.341 26.127H254.715C254.715 25.7871 254.803 25.4502 254.979 25.1162C255.154 24.7822 255.406 24.4805 255.734 24.2109C256.068 23.9355 256.467 23.7188 256.93 23.5605C257.398 23.3965 257.92 23.3145 258.494 23.3145C259.186 23.3145 259.795 23.4316 260.322 23.666C260.855 23.9004 261.271 24.2549 261.57 24.7295C261.875 25.1982 262.027 25.7871 262.027 26.4961V30.9258C262.027 31.2422 262.054 31.5791 262.106 31.9365C262.165 32.2939 262.25 32.6016 262.361 32.8594V33H260.665C260.583 32.8125 260.519 32.5635 260.472 32.2529C260.425 31.9365 260.401 31.6436 260.401 31.374ZM260.683 27.2344L260.7 28.377H259.057C258.594 28.377 258.181 28.415 257.817 28.4912C257.454 28.5615 257.149 28.6699 256.903 28.8164C256.657 28.9629 256.47 29.1475 256.341 29.3701C256.212 29.5869 256.147 29.8418 256.147 30.1348C256.147 30.4336 256.215 30.7061 256.35 30.9521C256.484 31.1982 256.687 31.3945 256.956 31.541C257.231 31.6816 257.568 31.752 257.967 31.752C258.465 31.752 258.904 31.6465 259.285 31.4355C259.666 31.2246 259.968 30.9668 260.19 30.6621C260.419 30.3574 260.542 30.0615 260.56 29.7744L261.254 30.5566C261.213 30.8027 261.102 31.0752 260.92 31.374C260.738 31.6729 260.495 31.96 260.19 32.2354C259.892 32.5049 259.534 32.7305 259.118 32.9121C258.708 33.0879 258.245 33.1758 257.729 33.1758C257.085 33.1758 256.52 33.0498 256.033 32.7979C255.553 32.5459 255.178 32.209 254.908 31.7871C254.645 31.3594 254.513 30.8818 254.513 30.3545C254.513 29.8447 254.612 29.3965 254.812 29.0098C255.011 28.6172 255.298 28.292 255.673 28.0342C256.048 27.7705 256.499 27.5713 257.026 27.4365C257.554 27.3018 258.143 27.2344 258.793 27.2344H260.683ZM268.136 28.4561H266.387V27.4541H268.004C268.455 27.4541 268.812 27.3984 269.076 27.2871C269.34 27.1699 269.527 27.0088 269.639 26.8037C269.75 26.5986 269.806 26.3584 269.806 26.083C269.806 25.8369 269.741 25.6055 269.612 25.3887C269.489 25.166 269.29 24.9873 269.015 24.8525C268.739 24.7119 268.37 24.6416 267.907 24.6416C267.532 24.6416 267.192 24.709 266.888 24.8438C266.583 24.9727 266.34 25.1514 266.158 25.3799C265.982 25.6025 265.895 25.8545 265.895 26.1357H264.269C264.269 25.5557 264.433 25.0576 264.761 24.6416C265.095 24.2197 265.537 23.8945 266.088 23.666C266.645 23.4375 267.251 23.3232 267.907 23.3232C268.458 23.3232 268.95 23.3848 269.384 23.5078C269.823 23.625 270.195 23.8008 270.5 24.0352C270.805 24.2637 271.036 24.5508 271.194 24.8965C271.358 25.2363 271.44 25.6318 271.44 26.083C271.44 26.4053 271.364 26.71 271.212 26.9971C271.06 27.2842 270.84 27.5391 270.553 27.7617C270.266 27.9785 269.917 28.1484 269.507 28.2715C269.103 28.3945 268.646 28.4561 268.136 28.4561ZM266.387 27.8408H268.136C268.704 27.8408 269.205 27.8965 269.639 28.0078C270.072 28.1133 270.436 28.2715 270.729 28.4824C271.021 28.6934 271.241 28.9541 271.388 29.2646C271.54 29.5693 271.616 29.9209 271.616 30.3193C271.616 30.7646 271.525 31.166 271.344 31.5234C271.168 31.875 270.916 32.1738 270.588 32.4199C270.26 32.666 269.867 32.8535 269.41 32.9824C268.959 33.1113 268.458 33.1758 267.907 33.1758C267.292 33.1758 266.694 33.0703 266.114 32.8594C265.534 32.6484 265.057 32.3232 264.682 31.8838C264.307 31.4385 264.119 30.873 264.119 30.1875H265.745C265.745 30.4746 265.836 30.7471 266.018 31.0049C266.199 31.2627 266.451 31.4707 266.773 31.6289C267.102 31.7871 267.479 31.8662 267.907 31.8662C268.364 31.8662 268.745 31.7959 269.05 31.6553C269.354 31.5146 269.583 31.3271 269.735 31.0928C269.894 30.8584 269.973 30.6035 269.973 30.3281C269.973 29.9707 269.902 29.6836 269.762 29.4668C269.621 29.25 269.404 29.0918 269.111 28.9922C268.824 28.8867 268.455 28.834 268.004 28.834H266.387V27.8408ZM275.352 25.3184V36.6562H273.717V23.4902H275.211L275.352 25.3184ZM281.759 28.166V28.3506C281.759 29.042 281.677 29.6836 281.513 30.2754C281.349 30.8613 281.108 31.3711 280.792 31.8047C280.481 32.2383 280.098 32.5752 279.641 32.8154C279.184 33.0557 278.659 33.1758 278.067 33.1758C277.464 33.1758 276.931 33.0762 276.468 32.877C276.005 32.6777 275.612 32.3877 275.29 32.0068C274.968 31.626 274.71 31.1689 274.517 30.6357C274.329 30.1025 274.2 29.502 274.13 28.834V27.8496C274.2 27.1465 274.332 26.5166 274.525 25.96C274.719 25.4033 274.974 24.9287 275.29 24.5361C275.612 24.1377 276.002 23.8359 276.459 23.6309C276.916 23.4199 277.443 23.3145 278.041 23.3145C278.639 23.3145 279.169 23.4316 279.632 23.666C280.095 23.8945 280.484 24.2227 280.801 24.6504C281.117 25.0781 281.354 25.5908 281.513 26.1885C281.677 26.7803 281.759 27.4395 281.759 28.166ZM280.124 28.3506V28.166C280.124 27.6914 280.074 27.2461 279.975 26.8301C279.875 26.4082 279.72 26.0391 279.509 25.7227C279.304 25.4004 279.04 25.1484 278.718 24.9668C278.396 24.7793 278.012 24.6855 277.566 24.6855C277.156 24.6855 276.799 24.7559 276.494 24.8965C276.195 25.0371 275.94 25.2275 275.729 25.4678C275.519 25.7021 275.346 25.9717 275.211 26.2764C275.082 26.5752 274.985 26.8857 274.921 27.208V29.4844C275.038 29.8945 275.202 30.2812 275.413 30.6445C275.624 31.002 275.905 31.292 276.257 31.5146C276.608 31.7314 277.051 31.8398 277.584 31.8398C278.023 31.8398 278.401 31.749 278.718 31.5674C279.04 31.3799 279.304 31.125 279.509 30.8027C279.72 30.4805 279.875 30.1113 279.975 29.6953C280.074 29.2734 280.124 28.8252 280.124 28.3506ZM289.44 31.374V26.4785C289.44 26.1035 289.364 25.7783 289.212 25.5029C289.065 25.2217 288.843 25.0049 288.544 24.8525C288.245 24.7002 287.876 24.624 287.437 24.624C287.026 24.624 286.666 24.6943 286.355 24.835C286.051 24.9756 285.811 25.1602 285.635 25.3887C285.465 25.6172 285.38 25.8633 285.38 26.127H283.754C283.754 25.7871 283.842 25.4502 284.018 25.1162C284.193 24.7822 284.445 24.4805 284.773 24.2109C285.107 23.9355 285.506 23.7188 285.969 23.5605C286.438 23.3965 286.959 23.3145 287.533 23.3145C288.225 23.3145 288.834 23.4316 289.361 23.666C289.895 23.9004 290.311 24.2549 290.609 24.7295C290.914 25.1982 291.066 25.7871 291.066 26.4961V30.9258C291.066 31.2422 291.093 31.5791 291.146 31.9365C291.204 32.2939 291.289 32.6016 291.4 32.8594V33H289.704C289.622 32.8125 289.558 32.5635 289.511 32.2529C289.464 31.9365 289.44 31.6436 289.44 31.374ZM289.722 27.2344L289.739 28.377H288.096C287.633 28.377 287.22 28.415 286.856 28.4912C286.493 28.5615 286.188 28.6699 285.942 28.8164C285.696 28.9629 285.509 29.1475 285.38 29.3701C285.251 29.5869 285.187 29.8418 285.187 30.1348C285.187 30.4336 285.254 30.7061 285.389 30.9521C285.523 31.1982 285.726 31.3945 285.995 31.541C286.271 31.6816 286.607 31.752 287.006 31.752C287.504 31.752 287.943 31.6465 288.324 31.4355C288.705 31.2246 289.007 30.9668 289.229 30.6621C289.458 30.3574 289.581 30.0615 289.599 29.7744L290.293 30.5566C290.252 30.8027 290.141 31.0752 289.959 31.374C289.777 31.6729 289.534 31.96 289.229 32.2354C288.931 32.5049 288.573 32.7305 288.157 32.9121C287.747 33.0879 287.284 33.1758 286.769 33.1758C286.124 33.1758 285.559 33.0498 285.072 32.7979C284.592 32.5459 284.217 32.209 283.947 31.7871C283.684 31.3594 283.552 30.8818 283.552 30.3545C283.552 29.8447 283.651 29.3965 283.851 29.0098C284.05 28.6172 284.337 28.292 284.712 28.0342C285.087 27.7705 285.538 27.5713 286.065 27.4365C286.593 27.3018 287.182 27.2344 287.832 27.2344H289.722ZM299.724 19.3506H301.06C301.06 19.9248 300.972 20.3818 300.796 20.7217C300.62 21.0557 300.38 21.3135 300.075 21.4951C299.776 21.6768 299.437 21.8145 299.056 21.9082C298.681 22.002 298.291 22.0928 297.887 22.1807C297.383 22.2861 296.914 22.4531 296.48 22.6816C296.053 22.9043 295.684 23.2207 295.373 23.6309C295.068 24.041 294.843 24.5742 294.696 25.2305C294.556 25.8867 294.518 26.6982 294.582 27.665V28.4736H293.246V27.665C293.246 26.5811 293.349 25.6348 293.554 24.8262C293.765 24.0176 294.061 23.335 294.441 22.7783C294.822 22.2217 295.273 21.7793 295.795 21.4512C296.322 21.123 296.902 20.8975 297.535 20.7744C297.992 20.6865 298.385 20.5928 298.713 20.4932C299.041 20.3877 299.29 20.2471 299.46 20.0713C299.636 19.8955 299.724 19.6553 299.724 19.3506ZM297.799 24.0352C298.42 24.0352 298.974 24.1436 299.46 24.3604C299.946 24.5771 300.359 24.8789 300.699 25.2656C301.039 25.6523 301.297 26.1094 301.473 26.6367C301.654 27.1582 301.745 27.7266 301.745 28.3418V28.5352C301.745 29.1973 301.648 29.8125 301.455 30.3809C301.268 30.9434 300.989 31.4355 300.62 31.8574C300.257 32.2734 299.812 32.5986 299.284 32.833C298.763 33.0674 298.168 33.1846 297.5 33.1846C296.832 33.1846 296.234 33.0674 295.707 32.833C295.186 32.5986 294.74 32.2734 294.371 31.8574C294.002 31.4355 293.721 30.9434 293.527 30.3809C293.34 29.8125 293.246 29.1973 293.246 28.5352V28.3418C293.246 28.1953 293.272 28.0518 293.325 27.9111C293.378 27.7705 293.442 27.627 293.519 27.4805C293.601 27.334 293.674 27.1787 293.738 27.0146C293.955 26.4873 294.251 25.998 294.626 25.5469C295.007 25.0957 295.461 24.7324 295.988 24.457C296.521 24.1758 297.125 24.0352 297.799 24.0352ZM297.482 25.3623C296.885 25.3623 296.393 25.5 296.006 25.7754C295.625 26.0508 295.341 26.417 295.153 26.874C294.966 27.3252 294.872 27.8145 294.872 28.3418V28.5352C294.872 28.9805 294.925 29.4023 295.03 29.8008C295.136 30.1992 295.294 30.5537 295.505 30.8643C295.722 31.1689 295.994 31.4092 296.322 31.585C296.656 31.7607 297.049 31.8486 297.5 31.8486C297.951 31.8486 298.341 31.7607 298.669 31.585C298.997 31.4092 299.267 31.1689 299.478 30.8643C299.688 30.5537 299.847 30.1992 299.952 29.8008C300.058 29.4023 300.11 28.9805 300.11 28.5352V28.3418C300.11 27.9434 300.058 27.5654 299.952 27.208C299.847 26.8506 299.686 26.5342 299.469 26.2588C299.258 25.9834 298.985 25.7666 298.651 25.6084C298.323 25.4443 297.934 25.3623 297.482 25.3623ZM303.16 28.3506V28.1484C303.16 27.4629 303.26 26.8271 303.459 26.2412C303.658 25.6494 303.945 25.1367 304.32 24.7031C304.695 24.2637 305.149 23.9238 305.683 23.6836C306.216 23.4375 306.813 23.3145 307.476 23.3145C308.144 23.3145 308.744 23.4375 309.277 23.6836C309.816 23.9238 310.273 24.2637 310.648 24.7031C311.029 25.1367 311.319 25.6494 311.519 26.2412C311.718 26.8271 311.817 27.4629 311.817 28.1484V28.3506C311.817 29.0361 311.718 29.6719 311.519 30.2578C311.319 30.8438 311.029 31.3564 310.648 31.7959C310.273 32.2295 309.819 32.5693 309.286 32.8154C308.759 33.0557 308.161 33.1758 307.493 33.1758C306.825 33.1758 306.225 33.0557 305.691 32.8154C305.158 32.5693 304.701 32.2295 304.32 31.7959C303.945 31.3564 303.658 30.8438 303.459 30.2578C303.26 29.6719 303.16 29.0361 303.16 28.3506ZM304.786 28.1484V28.3506C304.786 28.8252 304.842 29.2734 304.953 29.6953C305.064 30.1113 305.231 30.4805 305.454 30.8027C305.683 31.125 305.967 31.3799 306.307 31.5674C306.646 31.749 307.042 31.8398 307.493 31.8398C307.938 31.8398 308.328 31.749 308.662 31.5674C309.002 31.3799 309.283 31.125 309.506 30.8027C309.729 30.4805 309.896 30.1113 310.007 29.6953C310.124 29.2734 310.183 28.8252 310.183 28.3506V28.1484C310.183 27.6797 310.124 27.2373 310.007 26.8213C309.896 26.3994 309.726 26.0273 309.497 25.7051C309.274 25.377 308.993 25.1191 308.653 24.9316C308.319 24.7441 307.927 24.6504 307.476 24.6504C307.03 24.6504 306.638 24.7441 306.298 24.9316C305.964 25.1191 305.683 25.377 305.454 25.7051C305.231 26.0273 305.064 26.3994 304.953 26.8213C304.842 27.2373 304.786 27.6797 304.786 28.1484ZM317.539 23.4902V33H315.904V23.4902H317.539ZM320.729 23.4902V24.8086H312.775V23.4902H320.729ZM324.096 23.4902V33H322.47V23.4902H324.096ZM330.336 23.4902L325.827 28.9395H323.551L323.305 27.5156H325.168L328.358 23.4902H330.336ZM328.587 33L325.089 28.6934L326.135 27.5156L330.652 33H328.587ZM337.675 31.374V26.4785C337.675 26.1035 337.599 25.7783 337.446 25.5029C337.3 25.2217 337.077 25.0049 336.778 24.8525C336.479 24.7002 336.11 24.624 335.671 24.624C335.261 24.624 334.9 24.6943 334.59 24.835C334.285 24.9756 334.045 25.1602 333.869 25.3887C333.699 25.6172 333.614 25.8633 333.614 26.127H331.988C331.988 25.7871 332.076 25.4502 332.252 25.1162C332.428 24.7822 332.68 24.4805 333.008 24.2109C333.342 23.9355 333.74 23.7188 334.203 23.5605C334.672 23.3965 335.193 23.3145 335.768 23.3145C336.459 23.3145 337.068 23.4316 337.596 23.666C338.129 23.9004 338.545 24.2549 338.844 24.7295C339.148 25.1982 339.301 25.7871 339.301 26.4961V30.9258C339.301 31.2422 339.327 31.5791 339.38 31.9365C339.438 32.2939 339.523 32.6016 339.635 32.8594V33H337.938C337.856 32.8125 337.792 32.5635 337.745 32.2529C337.698 31.9365 337.675 31.6436 337.675 31.374ZM337.956 27.2344L337.974 28.377H336.33C335.867 28.377 335.454 28.415 335.091 28.4912C334.728 28.5615 334.423 28.6699 334.177 28.8164C333.931 28.9629 333.743 29.1475 333.614 29.3701C333.485 29.5869 333.421 29.8418 333.421 30.1348C333.421 30.4336 333.488 30.7061 333.623 30.9521C333.758 31.1982 333.96 31.3945 334.229 31.541C334.505 31.6816 334.842 31.752 335.24 31.752C335.738 31.752 336.178 31.6465 336.559 31.4355C336.939 31.2246 337.241 30.9668 337.464 30.6621C337.692 30.3574 337.815 30.0615 337.833 29.7744L338.527 30.5566C338.486 30.8027 338.375 31.0752 338.193 31.374C338.012 31.6729 337.769 31.96 337.464 32.2354C337.165 32.5049 336.808 32.7305 336.392 32.9121C335.981 33.0879 335.519 33.1758 335.003 33.1758C334.358 33.1758 333.793 33.0498 333.307 32.7979C332.826 32.5459 332.451 32.209 332.182 31.7871C331.918 31.3594 331.786 30.8818 331.786 30.3545C331.786 29.8447 331.886 29.3965 332.085 29.0098C332.284 28.6172 332.571 28.292 332.946 28.0342C333.321 27.7705 333.772 27.5713 334.3 27.4365C334.827 27.3018 335.416 27.2344 336.066 27.2344H337.956Z" fill="black"/>
<path d="M6.91406 232.422H97.8226" stroke="black" stroke-linecap="round" stroke-dasharray="10 10"/>
<path d="M392.061 231.033H489.215" stroke="black" stroke-linecap="round" stroke-dasharray="10 10"/>
<circle cx="278" cy="289" r="21" fill="#23B6FF"/>
<g clip-path="url(#clip1_36_393)">
<rect x="68.5093" y="109.68" width="98" height="53" rx="26.5" transform="rotate(29.166 68.5093 109.68)" fill="#F4F6F7"/>
<rect x="68.5093" y="109.68" width="98" height="53" rx="26.5" transform="rotate(29.166 68.5093 109.68)" stroke="black"/>
<rect x="278.699" y="145.722" width="126.704" height="53" rx="26.5" transform="rotate(-36.3048 278.699 145.722)" fill="#F4F6F7"/>
<rect x="278.699" y="145.722" width="126.704" height="53" rx="26.5" transform="rotate(-36.3048 278.699 145.722)" stroke="black"/>
<g clip-path="url(#clip2_36_393)">
<path fill-rule="evenodd" clip-rule="evenodd" d="M310.59 147.204C310.721 147.192 310.853 147.205 310.979 147.244C311.104 147.282 311.221 147.345 311.322 147.429C311.424 147.513 311.507 147.615 311.569 147.731C311.63 147.847 311.668 147.974 311.681 148.105L312.876 160.67L312.875 160.674C312.901 160.959 312.863 161.245 312.765 161.514C312.666 161.782 312.509 162.025 312.305 162.225C312.097 162.427 311.845 162.58 311.57 162.672C311.294 162.764 311.002 162.792 310.714 162.755L306.645 162.247C306.512 162.234 306.384 162.194 306.267 162.13C306.15 162.066 306.047 161.979 305.964 161.875C305.881 161.771 305.82 161.651 305.784 161.523C305.748 161.395 305.738 161.261 305.754 161.129C305.771 160.997 305.814 160.869 305.88 160.754C305.947 160.638 306.035 160.537 306.141 160.457C306.247 160.376 306.368 160.317 306.497 160.284C306.626 160.251 306.761 160.244 306.892 160.263L310.874 160.76L309.689 148.295C309.676 148.165 309.69 148.033 309.728 147.907C309.767 147.782 309.83 147.665 309.914 147.564C309.997 147.462 310.1 147.379 310.216 147.317C310.332 147.255 310.459 147.217 310.59 147.205L310.59 147.204Z" fill="#212121"/>
</g>
<rect x="146.612" y="81.9766" width="98" height="53" rx="26.5" transform="rotate(-15 146.612 81.9766)" fill="#F4F6F7"/>
<rect x="146.612" y="81.9766" width="98" height="53" rx="26.5" transform="rotate(-15 146.612 81.9766)" stroke="black"/>
<rect x="334.606" y="141.179" width="98" height="53" rx="26.5" transform="rotate(-13.919 334.606 141.179)" fill="#F4F6F7"/>
<rect x="334.606" y="141.179" width="98" height="53" rx="26.5" transform="rotate(-13.919 334.606 141.179)" stroke="black"/>
<rect x="174.187" y="177.597" width="98" height="53" rx="26.5" transform="rotate(12.6316 174.187 177.597)" fill="#F4F6F7"/>
<rect x="174.187" y="177.597" width="98" height="53" rx="26.5" transform="rotate(12.6316 174.187 177.597)" stroke="black"/>
</g>
</g>
<defs>
<clipPath id="clip0_36_393">
<rect width="493" height="381" rx="32" fill="white"/>
</clipPath>
<clipPath id="clip1_36_393">
<rect width="489" height="216" fill="white" transform="translate(5 15)"/>
</clipPath>
<clipPath id="clip2_36_393">
<rect width="14" height="14" fill="white" transform="translate(300.1 156) rotate(-45)"/>
</clipPath>
</defs>
</svg>
