<svg width="501" height="381" viewBox="0 0 501 381" fill="none" xmlns="http://www.w3.org/2000/svg">
<g clip-path="url(#clip0_36_340)">
<rect x="392.97" y="298.994" width="112" height="48" rx="24" transform="rotate(9.04609 392.97 298.994)" fill="white"/>
<rect x="392.97" y="298.994" width="112" height="48" rx="24" transform="rotate(9.04609 392.97 298.994)" stroke="black"/>
<path d="M396.365 326.666L403.276 318.89L404.765 319.127L402.976 330.361L401.487 330.124L402.867 321.459L395.955 329.243L394.474 329.007L396.262 317.774L397.744 318.01L396.365 326.666ZM408.971 330.271C409.311 330.325 409.635 330.306 409.946 330.213C410.256 330.12 410.523 329.967 410.746 329.755C410.971 329.537 411.121 329.274 411.196 328.964L412.554 329.18C412.45 329.67 412.21 330.104 411.833 330.481C411.462 330.855 411.009 331.133 410.474 331.317C409.939 331.496 409.376 331.538 408.784 331.444C408.157 331.344 407.627 331.146 407.194 330.85C406.766 330.556 406.429 330.191 406.181 329.756C405.939 329.322 405.781 328.843 405.706 328.319C405.637 327.792 405.647 327.247 405.737 326.687L405.788 326.363C405.877 325.802 406.036 325.284 406.265 324.809C406.5 324.329 406.799 323.921 407.164 323.583C407.534 323.247 407.968 323.005 408.466 322.857C408.97 322.711 409.535 322.687 410.163 322.787C410.816 322.891 411.365 323.116 411.812 323.461C412.258 323.801 412.584 324.222 412.789 324.724C413 325.222 413.072 325.761 413.006 326.341L411.648 326.125C411.678 325.776 411.629 325.449 411.504 325.145C411.384 324.841 411.192 324.583 410.931 324.373C410.675 324.158 410.357 324.021 409.976 323.96C409.539 323.89 409.157 323.919 408.831 324.047C408.511 324.17 408.24 324.364 408.018 324.629C407.803 324.89 407.628 325.192 407.494 325.535C407.367 325.873 407.274 326.225 407.216 326.59L407.164 326.914C407.106 327.279 407.085 327.645 407.1 328.011C407.116 328.378 407.185 328.718 407.309 329.033C407.438 329.349 407.635 329.618 407.901 329.84C408.172 330.057 408.529 330.201 408.971 330.271ZM420.646 324.615L420.458 325.795L416.423 325.153L416.611 323.972L420.646 324.615ZM421.904 324.815L420.575 333.163L419.147 332.935L420.477 324.587L421.904 324.815ZM416.264 323.917L417.699 324.145L416.842 328.138C416.707 328.755 416.56 329.296 416.402 329.761C416.249 330.222 416.076 330.611 415.883 330.929C415.696 331.247 415.482 331.497 415.242 331.681C415.007 331.86 414.741 331.978 414.441 332.036C414.143 332.089 413.808 332.085 413.438 332.026L412.991 331.955L413.191 330.698L413.503 330.724C413.727 330.743 413.923 330.722 414.091 330.659C414.264 330.597 414.419 330.49 414.554 330.337C414.689 330.179 414.813 329.97 414.923 329.708C415.038 329.446 415.144 329.131 415.24 328.761C415.34 328.392 415.441 327.96 415.541 327.464L416.264 323.917ZM426.314 334.235C425.732 334.142 425.221 333.96 424.779 333.69C424.343 333.414 423.983 333.07 423.701 332.656C423.424 332.243 423.235 331.775 423.134 331.252C423.032 330.73 423.028 330.175 423.122 329.589L423.173 329.265C423.281 328.586 423.478 327.998 423.763 327.5C424.048 326.997 424.393 326.588 424.797 326.272C425.2 325.957 425.636 325.739 426.103 325.618C426.571 325.497 427.039 325.474 427.507 325.549C428.103 325.644 428.601 325.828 429.001 326.103C429.405 326.378 429.717 326.723 429.935 327.138C430.155 327.547 430.292 328.012 430.346 328.532C430.401 329.047 430.382 329.598 430.289 330.184L430.187 330.825L423.953 329.832L424.138 328.667L428.945 329.432L428.962 329.324C429.001 328.951 428.981 328.578 428.903 328.207C428.83 327.837 428.67 327.516 428.423 327.245C428.176 326.974 427.809 326.799 427.32 326.721C426.996 326.67 426.687 326.692 426.392 326.787C426.098 326.877 425.832 327.041 425.594 327.277C425.356 327.513 425.152 327.816 424.983 328.184C424.813 328.553 424.688 328.989 424.608 329.493L424.557 329.817C424.494 330.214 424.488 330.595 424.54 330.962C424.599 331.325 424.712 331.654 424.882 331.95C425.056 332.246 425.283 332.494 425.563 332.691C425.847 332.889 426.185 333.02 426.576 333.082C427.08 333.162 427.524 333.127 427.906 332.977C428.289 332.827 428.639 332.601 428.956 332.298L429.71 333.122C429.487 333.366 429.217 333.589 428.9 333.792C428.583 333.995 428.209 334.141 427.778 334.23C427.352 334.321 426.864 334.322 426.314 334.235ZM434.086 326.754L435.514 326.982L434.893 330.087C434.736 330.874 434.537 331.544 434.296 332.096C434.055 332.648 433.787 333.109 433.49 333.479C433.195 333.843 432.882 334.139 432.55 334.365C432.224 334.593 431.894 334.775 431.561 334.912L430.852 334.799L431.076 333.64L431.37 333.679C431.572 333.505 431.769 333.326 431.962 333.14C432.156 332.95 432.343 332.718 432.524 332.447C432.705 332.17 432.873 331.825 433.029 331.412C433.19 330.994 433.333 330.476 433.458 329.858L434.086 326.754ZM434.441 326.811L439.464 327.61L438.135 335.958L436.708 335.731L437.827 328.703L434.231 328.13L434.441 326.811ZM430.714 333.575L439.394 334.956L438.816 338.59L437.388 338.363L437.78 335.902L431.955 334.975L431.563 337.436L430.128 337.207L430.714 333.575ZM441.061 332.239L441.089 332.062C441.185 331.46 441.361 330.916 441.618 330.429C441.875 329.938 442.199 329.528 442.589 329.2C442.98 328.866 443.426 328.631 443.927 328.495C444.43 328.354 444.972 328.329 445.553 328.422C446.139 328.515 446.649 328.707 447.083 328.997C447.522 329.284 447.876 329.646 448.144 330.084C448.418 330.518 448.601 331.009 448.693 331.556C448.786 332.098 448.784 332.67 448.689 333.272L448.66 333.449C448.565 334.051 448.388 334.595 448.131 335.082C447.875 335.568 447.548 335.978 447.153 336.31C446.763 336.639 446.317 336.873 445.814 337.015C445.318 337.152 444.776 337.174 444.19 337.081C443.604 336.987 443.093 336.798 442.659 336.513C442.225 336.222 441.871 335.86 441.598 335.426C441.33 334.988 441.15 334.498 441.057 333.955C440.964 333.413 440.965 332.841 441.061 332.239ZM442.516 332.289L442.488 332.467C442.422 332.883 442.408 333.285 442.447 333.67C442.486 334.051 442.581 334.399 442.732 334.713C442.887 335.027 443.101 335.291 443.373 335.503C443.646 335.71 443.981 335.845 444.377 335.908C444.768 335.97 445.122 335.945 445.441 335.832C445.765 335.715 446.048 335.531 446.289 335.279C446.529 335.027 446.727 334.726 446.883 334.377C447.045 334.023 447.159 333.637 447.225 333.221L447.254 333.043C447.319 332.632 447.329 332.235 447.285 331.854C447.246 331.468 447.149 331.118 446.993 330.803C446.844 330.484 446.633 330.218 446.361 330.006C446.094 329.795 445.762 329.657 445.366 329.594C444.975 329.532 444.617 329.56 444.293 329.677C443.974 329.795 443.691 329.982 443.444 330.238C443.204 330.489 443.005 330.793 442.848 331.148C442.693 331.497 442.582 331.878 442.516 332.289ZM454.305 334.767L451.566 334.331L451.732 333.187L453.969 333.543C454.412 333.613 454.787 333.628 455.094 333.588C455.406 333.548 455.651 333.452 455.828 333.301C456.005 333.15 456.113 332.946 456.154 332.688C456.186 332.488 456.17 332.306 456.107 332.143C456.049 331.976 455.943 331.829 455.789 331.705C455.636 331.575 455.437 331.467 455.192 331.38C454.953 331.289 454.667 331.217 454.332 331.164L452.504 330.873L451.359 338.064L449.932 337.837L451.261 329.489L454.517 330.007C455.046 330.091 455.515 330.213 455.922 330.373C456.334 330.534 456.674 330.733 456.942 330.971C457.216 331.204 457.41 331.478 457.524 331.791C457.637 332.104 457.663 332.457 457.601 332.847C457.56 333.1 457.471 333.331 457.332 333.54C457.193 333.75 457.009 333.927 456.781 334.07C456.553 334.213 456.283 334.317 455.972 334.384C455.661 334.445 455.313 334.461 454.928 334.431L454.305 334.767ZM453.72 338.44L450.464 337.921L451.358 336.877L453.904 337.282C454.3 337.345 454.637 337.349 454.915 337.293C455.194 337.232 455.412 337.119 455.57 336.954C455.734 336.785 455.837 336.57 455.879 336.307C455.921 336.045 455.889 335.811 455.785 335.604C455.687 335.393 455.514 335.218 455.268 335.079C455.022 334.934 454.701 334.83 454.305 334.767L452.137 334.422L452.334 333.283L455.042 333.714L455.49 334.228C455.942 334.337 456.312 334.512 456.601 334.753C456.89 334.994 457.093 335.274 457.211 335.594C457.33 335.908 457.362 336.235 457.308 336.574C457.246 336.965 457.116 337.298 456.919 337.573C456.728 337.848 456.477 338.064 456.168 338.22C455.859 338.372 455.498 338.467 455.086 338.507C454.674 338.542 454.219 338.519 453.72 338.44ZM463.992 338.612L464.677 334.314C464.729 333.985 464.708 333.689 464.612 333.426C464.523 333.159 464.358 332.937 464.117 332.762C463.876 332.586 463.563 332.468 463.177 332.406C462.817 332.349 462.491 332.36 462.198 332.44C461.911 332.521 461.675 332.65 461.488 332.826C461.307 333.003 461.198 333.207 461.161 333.438L459.734 333.211C459.781 332.913 459.906 332.629 460.107 332.36C460.308 332.092 460.571 331.862 460.897 331.671C461.228 331.476 461.608 331.342 462.037 331.268C462.471 331.189 462.941 331.19 463.445 331.27C464.052 331.367 464.57 331.555 465 331.834C465.436 332.115 465.751 332.484 465.947 332.942C466.149 333.396 466.201 333.935 466.102 334.557L465.482 338.445C465.438 338.723 465.414 339.023 465.411 339.344C465.412 339.666 465.444 339.948 465.505 340.189L465.486 340.313L463.997 340.076C463.951 339.9 463.929 339.672 463.931 339.393C463.934 339.109 463.955 338.848 463.992 338.612ZM464.818 335.017L464.674 336.023L463.231 335.793C462.825 335.728 462.457 335.704 462.127 335.72C461.798 335.731 461.516 335.783 461.279 335.878C461.043 335.972 460.852 336.108 460.708 336.285C460.565 336.457 460.472 336.672 460.431 336.929C460.39 337.192 460.411 337.44 460.495 337.675C460.579 337.91 460.729 338.111 460.945 338.277C461.167 338.439 461.453 338.548 461.803 338.603C462.24 338.673 462.64 338.642 463.004 338.51C463.368 338.378 463.669 338.194 463.907 337.957C464.15 337.722 464.299 337.479 464.355 337.23L464.855 338.013C464.785 338.224 464.649 338.447 464.448 338.684C464.246 338.921 463.993 339.139 463.687 339.338C463.387 339.533 463.042 339.681 462.651 339.783C462.266 339.88 461.848 339.892 461.395 339.82C460.829 339.73 460.351 339.54 459.959 339.251C459.572 338.963 459.29 338.615 459.113 338.207C458.941 337.794 458.892 337.357 458.966 336.894C459.037 336.446 459.187 336.067 459.416 335.755C459.646 335.438 459.943 335.193 460.308 335.019C460.674 334.84 461.098 334.728 461.58 334.684C462.062 334.639 462.588 334.662 463.159 334.753L464.818 335.017ZM473.854 336.796L473.67 337.953L469.256 337.251L469.441 336.093L473.854 336.796ZM470.318 332.523L468.989 340.871L467.561 340.643L468.89 332.295L470.318 332.523ZM475.587 333.362L474.258 341.71L472.823 341.481L474.152 333.133L475.587 333.362ZM478.46 340.061L483.279 334.586L484.714 334.815L483.385 343.163L481.95 342.934L482.919 336.847L478.1 342.321L476.681 342.095L478.01 333.747L479.429 333.973L478.46 340.061ZM488 339.815L489.543 340.061L486.495 343.658L484.952 343.412L488 339.815ZM489.891 335.639L493.379 336.194L492.05 344.542L490.622 344.315L491.767 337.124L489.707 336.796C489.301 336.732 488.958 336.748 488.679 336.846C488.4 336.939 488.185 337.084 488.032 337.281C487.879 337.478 487.784 337.693 487.748 337.924C487.712 338.15 487.731 338.378 487.805 338.606C487.881 338.829 488.023 339.025 488.233 339.196C488.444 339.367 488.731 339.481 489.096 339.539L491.712 339.955L491.525 341.128L488.91 340.712C488.431 340.636 488.017 340.504 487.667 340.316C487.318 340.129 487.032 339.901 486.811 339.634C486.591 339.362 486.438 339.06 486.353 338.731C486.27 338.395 486.257 338.045 486.315 337.68C486.373 337.315 486.496 336.989 486.684 336.703C486.877 336.417 487.126 336.18 487.43 335.991C487.74 335.803 488.1 335.678 488.511 335.617C488.927 335.551 489.387 335.559 489.891 335.639Z" fill="black"/>
<rect x="0.0872763" y="298.045" width="112" height="48" rx="24" transform="rotate(-5.58157 0.0872763 298.045)" fill="white"/>
<rect x="0.0872763" y="298.045" width="112" height="48" rx="24" transform="rotate(-5.58157 0.0872763 298.045)" stroke="black"/>
<path d="M26.3252 318.803L26.4453 320.031L21.8034 320.485L21.6833 319.256L26.3252 318.803ZM19.1829 322.185L20.6758 322.04C20.8109 322.565 20.9928 323.008 21.2216 323.368C21.4556 323.727 21.7716 323.989 22.1698 324.154C22.5674 324.314 23.0851 324.363 23.7227 324.301C24.2255 324.252 24.6508 324.105 24.9985 323.862C25.3458 323.614 25.6207 323.294 25.8232 322.902C26.0256 322.511 26.1601 322.066 26.2265 321.568C26.2981 321.069 26.3068 320.542 26.2526 319.987L26.1417 318.852C26.0946 318.37 26.0095 317.928 25.8866 317.527C25.7631 317.12 25.6025 316.762 25.4047 316.452C25.2064 316.136 24.9714 315.874 24.6998 315.665C24.4334 315.455 24.1308 315.304 23.7921 315.212C23.4586 315.119 23.0922 315.092 22.6931 315.131C22.1125 315.188 21.6483 315.338 21.3006 315.581C20.958 315.824 20.7069 316.147 20.5474 316.549C20.3926 316.947 20.3022 317.413 20.2761 317.95L18.7832 318.096C18.788 317.341 18.9287 316.666 19.2052 316.068C19.4812 315.466 19.8964 314.975 20.4508 314.596C21.0103 314.217 21.7177 313.986 22.573 313.902C23.2728 313.834 23.9148 313.897 24.4989 314.091C25.0831 314.285 25.5947 314.594 26.0337 315.016C26.4779 315.439 26.8354 315.964 27.106 316.591C27.3819 317.219 27.5586 317.929 27.6361 318.722L27.7455 319.841C27.823 320.635 27.7872 321.365 27.638 322.034C27.4934 322.697 27.2493 323.278 26.9056 323.778C26.5614 324.272 26.1294 324.67 25.6094 324.972C25.0946 325.274 24.5055 325.457 23.842 325.522C22.9348 325.61 22.162 325.521 21.5236 325.254C20.8847 324.981 20.3718 324.579 19.9848 324.046C19.603 323.513 19.3357 322.893 19.1829 322.185ZM33.4924 323.385C33.8346 323.352 34.1439 323.251 34.4205 323.083C34.6971 322.914 34.9168 322.699 35.0796 322.437C35.2419 322.17 35.3206 321.877 35.3156 321.559L36.6841 321.425C36.7068 321.925 36.5837 322.405 36.3147 322.866C36.0504 323.321 35.6824 323.705 35.2106 324.018C34.7383 324.326 34.204 324.509 33.6079 324.567C32.9755 324.629 32.4126 324.571 31.9191 324.395C31.4308 324.217 31.0121 323.949 30.6631 323.591C30.3193 323.232 30.045 322.809 29.8404 322.321C29.6404 321.828 29.5128 321.299 29.4576 320.734L29.4257 320.407C29.3705 319.842 29.3935 319.301 29.4946 318.784C29.6005 318.26 29.7874 317.789 30.0552 317.371C30.3282 316.952 30.6871 316.608 31.1319 316.339C31.5818 316.07 32.123 315.905 32.7554 315.843C33.4137 315.779 34.0022 315.857 34.521 316.079C35.0393 316.295 35.4609 316.62 35.786 317.054C36.1156 317.482 36.3218 317.986 36.4045 318.564L35.036 318.697C34.9761 318.353 34.847 318.049 34.6486 317.785C34.4553 317.522 34.2055 317.321 33.899 317.184C33.5972 317.04 33.2545 316.987 32.8709 317.025C32.4303 317.068 32.0682 317.192 31.7848 317.398C31.5061 317.598 31.293 317.854 31.1456 318.167C31.0029 318.474 30.9102 318.81 30.8674 319.175C30.8293 319.535 30.8282 319.899 30.8642 320.267L30.8961 320.593C30.932 320.961 31.0038 321.321 31.1113 321.671C31.2188 322.022 31.3723 322.334 31.5717 322.607C31.7763 322.881 32.035 323.091 32.3477 323.238C32.6651 323.38 33.0466 323.429 33.4924 323.385ZM41.1681 315.178L41.9902 323.591L40.544 323.732L39.7218 315.319L41.1681 315.178ZM43.9905 314.902L44.1045 316.068L37.0677 316.756L36.9538 315.59L43.9905 314.902ZM49.1122 323.052C48.5264 323.109 47.9855 323.063 47.4894 322.912C46.9979 322.756 46.5634 322.513 46.1858 322.184C45.8134 321.854 45.5122 321.449 45.2821 320.969C45.052 320.489 44.9081 319.954 44.8504 319.363L44.8185 319.036C44.7516 318.352 44.7932 317.733 44.9431 317.18C45.0926 316.621 45.3228 316.138 45.6336 315.731C45.9444 315.323 46.3108 315.002 46.7326 314.768C47.1545 314.533 47.6013 314.392 48.073 314.346C48.6743 314.287 49.2028 314.34 49.6585 314.505C50.1194 314.669 50.508 314.925 50.8244 315.27C51.1403 315.611 51.3902 316.026 51.5741 316.516C51.7575 317 51.8781 317.538 51.9358 318.129L51.9989 318.774L45.7163 319.388L45.6016 318.214L50.4457 317.741L50.4351 317.632C50.3778 317.261 50.2646 316.906 50.0954 316.566C49.9314 316.226 49.6957 315.956 49.3883 315.756C49.0809 315.556 48.681 315.48 48.1885 315.528C47.8619 315.56 47.5681 315.659 47.3071 315.826C47.0455 315.988 46.8294 316.213 46.6588 316.502C46.4881 316.791 46.3674 317.135 46.2965 317.534C46.2257 317.933 46.2151 318.387 46.2647 318.895L46.2966 319.222C46.3356 319.621 46.4268 319.991 46.5701 320.333C46.7181 320.669 46.9112 320.959 47.1496 321.203C47.3931 321.446 47.6752 321.628 47.9957 321.748C48.3214 321.868 48.6813 321.909 49.0752 321.87C49.5832 321.821 50.0033 321.675 50.3355 321.433C50.6678 321.191 50.9491 320.884 51.1795 320.511L52.118 321.118C51.9634 321.41 51.7583 321.694 51.5027 321.971C51.2471 322.247 50.9222 322.483 50.5279 322.678C50.1387 322.873 49.6668 322.998 49.1122 323.052ZM56.5635 313.673L57.3856 322.086L55.9394 322.228L55.1172 313.815L56.5635 313.673ZM59.386 313.398L59.4999 314.564L52.4631 315.252L52.3492 314.085L59.386 313.398ZM62.9557 319.242L66.2361 312.728L67.6824 312.587L68.5045 321L67.0583 321.141L66.4588 315.006L63.1784 321.52L61.7477 321.66L60.9255 313.247L62.3562 313.107L62.9557 319.242ZM71.5545 312.208L72.3767 320.621L70.9383 320.762L70.1161 312.349L71.5545 312.208ZM77.0751 311.669L73.5574 316.879L71.5436 317.076L71.2028 315.838L72.8512 315.677L75.3256 311.84L77.0751 311.669ZM76.35 320.233L72.883 316.726L73.7065 315.593L78.1772 320.055L76.35 320.233ZM84.2492 318.009L83.826 313.678C83.7936 313.346 83.6981 313.065 83.5395 312.835C83.3856 312.599 83.1699 312.426 82.8923 312.317C82.6148 312.208 82.2816 312.173 81.8929 312.211C81.53 312.246 81.2173 312.339 80.9547 312.491C80.6973 312.641 80.5007 312.826 80.365 313.043C80.2344 313.26 80.1805 313.485 80.2033 313.718L78.7649 313.859C78.7355 313.558 78.7841 313.252 78.9107 312.942C79.0374 312.631 79.2342 312.342 79.5012 312.075C79.7728 311.803 80.1066 311.577 80.5024 311.397C80.9029 311.211 81.3572 311.093 81.8652 311.044C82.4768 310.984 83.0261 311.035 83.5129 311.197C84.0048 311.358 84.4035 311.636 84.7089 312.03C85.019 312.418 85.2047 312.926 85.266 313.553L85.6489 317.472C85.6763 317.752 85.7287 318.048 85.8063 318.359C85.889 318.67 85.9908 318.935 86.1116 319.154L86.1237 319.278L84.6231 319.425C84.5343 319.266 84.4557 319.051 84.3874 318.78C84.3186 318.505 84.2725 318.247 84.2492 318.009ZM84.1401 314.322L84.2545 315.332L82.8005 315.474C82.391 315.514 82.0288 315.583 81.714 315.682C81.3987 315.776 81.1385 315.898 80.9335 316.049C80.7284 316.2 80.5785 316.379 80.4837 316.587C80.3884 316.79 80.3534 317.021 80.3788 317.28C80.4046 317.545 80.4878 317.78 80.6283 317.986C80.7688 318.192 80.9646 318.348 81.2157 318.455C81.4715 318.555 81.7756 318.588 82.1281 318.554C82.5687 318.511 82.9484 318.379 83.2671 318.16C83.5858 317.94 83.8304 317.686 84.0011 317.397C84.1769 317.108 84.2602 316.836 84.2509 316.58L84.9328 317.212C84.9178 317.433 84.8428 317.684 84.708 317.964C84.5731 318.244 84.3828 318.519 84.1371 318.789C83.896 319.053 83.5993 319.284 83.247 319.481C82.8993 319.672 82.4974 319.789 82.0413 319.834C81.4711 319.89 80.96 319.827 80.5079 319.646C80.0611 319.465 79.7002 319.199 79.4253 318.849C79.155 318.494 78.9971 318.083 78.9515 317.616C78.9075 317.165 78.9568 316.76 79.0996 316.401C79.2419 316.036 79.4678 315.724 79.7773 315.463C80.0862 315.197 80.4682 314.982 80.923 314.817C81.3779 314.653 81.893 314.542 82.4684 314.486L84.1401 314.322Z" fill="black"/>
<rect x="324.971" y="260.535" width="112" height="48" rx="24" transform="rotate(4.10408 324.971 260.535)" fill="white"/>
<rect x="324.971" y="260.535" width="112" height="48" rx="24" transform="rotate(4.10408 324.971 260.535)" stroke="black"/>
<path d="M363.985 286.646L363.934 287.363C363.873 288.215 363.711 288.971 363.45 289.631C363.188 290.291 362.841 290.843 362.407 291.287C361.973 291.731 361.466 292.058 360.887 292.267C360.314 292.477 359.681 292.557 358.99 292.507C358.32 292.459 357.714 292.29 357.17 292C356.632 291.711 356.175 291.315 355.799 290.813C355.427 290.311 355.154 289.715 354.979 289.024C354.805 288.332 354.748 287.56 354.809 286.708L354.86 285.992C354.921 285.14 355.085 284.386 355.351 283.732C355.623 283.073 355.979 282.521 356.418 282.077C356.857 281.629 357.364 281.299 357.938 281.09C358.517 280.881 359.141 280.8 359.811 280.848C360.502 280.898 361.117 281.067 361.655 281.357C362.198 281.646 362.652 282.044 363.018 282.551C363.389 283.053 363.657 283.649 363.822 284.34C363.992 285.025 364.046 285.794 363.985 286.646ZM362.445 287.256L362.498 286.524C362.546 285.849 362.519 285.246 362.416 284.717C362.318 284.187 362.15 283.737 361.91 283.364C361.67 282.992 361.365 282.701 360.994 282.492C360.627 282.283 360.203 282.161 359.72 282.126C359.252 282.093 358.822 282.153 358.43 282.308C358.043 282.463 357.701 282.707 357.406 283.041C357.116 283.375 356.879 283.797 356.696 284.306C356.514 284.815 356.398 285.407 356.35 286.083L356.297 286.815C356.248 287.496 356.278 288.104 356.386 288.639C356.494 289.169 356.67 289.623 356.914 290C357.164 290.373 357.47 290.664 357.831 290.873C358.197 291.082 358.614 291.203 359.082 291.237C359.57 291.272 360.01 291.212 360.402 291.057C360.795 290.903 361.133 290.658 361.419 290.324C361.709 289.984 361.941 289.56 362.113 289.05C362.286 288.535 362.397 287.937 362.445 287.256ZM371.81 284.795L371.724 285.988L367.462 285.682L367.547 284.489L371.81 284.795ZM367.758 284.505L367.153 292.936L365.711 292.833L366.316 284.401L367.758 284.505ZM373.088 284.887L372.483 293.318L371.033 293.214L371.638 284.783L373.088 284.887ZM376.378 288.037L378.911 288.219C379.591 288.267 380.157 288.428 380.607 288.701C381.058 288.968 381.388 289.318 381.597 289.751C381.812 290.179 381.9 290.655 381.863 291.18C381.835 291.569 381.741 291.931 381.581 292.264C381.422 292.592 381.198 292.873 380.91 293.109C380.627 293.344 380.282 293.52 379.877 293.638C379.477 293.75 379.023 293.788 378.514 293.751L374.929 293.494L375.534 285.063L376.976 285.166L376.456 292.413L378.599 292.567C379.015 292.597 379.352 292.545 379.613 292.412C379.873 292.28 380.066 292.098 380.192 291.866C380.318 291.635 380.391 291.39 380.41 291.13C380.428 290.876 380.391 290.622 380.3 290.37C380.208 290.118 380.043 289.903 379.805 289.724C379.568 289.54 379.242 289.433 378.826 289.403L376.293 289.221L376.378 288.037ZM385.267 285.761L384.662 294.192L383.221 294.089L383.826 285.657L385.267 285.761ZM391.228 286.189L390.623 294.62L389.174 294.516L389.779 286.085L391.228 286.189ZM394.057 286.392L393.973 287.56L386.921 287.054L387.005 285.886L394.057 286.392Z" fill="black"/>
<rect x="152.532" y="296.94" width="129.229" height="48" rx="24" transform="rotate(-3.79298 152.532 296.94)" fill="white"/>
<rect x="152.532" y="296.94" width="129.229" height="48" rx="24" transform="rotate(-3.79298 152.532 296.94)" stroke="black"/>
<path d="M199.264 312.125L200.017 323.475L198.512 323.575L197.76 312.225L199.264 312.125ZM206.257 311.662L201.744 318.233L199.078 318.409L198.761 317.178L200.765 317.045L204.394 311.785L206.257 311.662ZM205.497 323.112L200.881 318.094L201.636 316.721L207.337 322.99L205.497 323.112ZM213.7 317.769L213.778 318.938L209.319 319.234L209.241 318.064L213.7 317.769ZM209.303 314.388L209.862 322.823L208.42 322.918L207.861 314.484L209.303 314.388ZM214.627 314.035L215.186 322.47L213.737 322.566L213.177 314.131L214.627 314.035ZM216.854 318.217L216.842 318.038C216.802 317.43 216.853 316.86 216.995 316.329C217.137 315.792 217.362 315.321 217.669 314.914C217.975 314.502 218.358 314.174 218.817 313.93C219.275 313.68 219.798 313.536 220.386 313.497C220.978 313.458 221.518 313.531 222.005 313.718C222.498 313.9 222.923 314.174 223.281 314.542C223.645 314.904 223.932 315.342 224.144 315.855C224.355 316.363 224.48 316.921 224.521 317.529L224.533 317.708C224.573 318.316 224.522 318.886 224.38 319.417C224.237 319.949 224.01 320.421 223.698 320.833C223.391 321.239 223.009 321.568 222.55 321.817C222.096 322.061 221.573 322.203 220.981 322.242C220.389 322.281 219.849 322.21 219.362 322.029C218.874 321.842 218.449 321.567 218.086 321.205C217.727 320.837 217.442 320.399 217.231 319.891C217.02 319.383 216.894 318.825 216.854 318.217ZM218.284 317.942L218.296 318.122C218.324 318.543 218.4 318.937 218.523 319.305C218.647 319.667 218.817 319.985 219.033 320.257C219.255 320.53 219.522 320.739 219.834 320.885C220.146 321.027 220.502 321.084 220.902 321.057C221.297 321.031 221.638 320.928 221.923 320.747C222.214 320.561 222.448 320.318 222.627 320.019C222.805 319.72 222.932 319.383 223.006 319.007C223.085 318.626 223.111 318.225 223.083 317.804L223.071 317.625C223.043 317.209 222.965 316.82 222.837 316.458C222.713 316.091 222.541 315.771 222.319 315.498C222.102 315.22 221.838 315.008 221.525 314.862C221.218 314.715 220.864 314.655 220.464 314.682C220.069 314.708 219.726 314.814 219.436 315C219.151 315.186 218.917 315.432 218.733 315.736C218.555 316.035 218.428 316.375 218.354 316.756C218.28 317.131 218.257 317.527 218.284 317.942ZM231.676 312.905L231.755 314.098L227.491 314.38L227.412 313.188L231.676 312.905ZM227.622 313.174L228.181 321.608L226.739 321.704L226.18 313.269L227.622 313.174ZM232.954 312.82L233.513 321.255L232.064 321.351L231.504 312.916L232.954 312.82ZM236.836 312.563L237.396 320.997L235.953 321.093L235.394 312.658L236.836 312.563ZM242.371 312.196L238.692 317.294L236.673 317.428L236.371 316.18L238.024 316.07L240.617 312.312L242.371 312.196ZM241.379 320.733L238.023 317.119L238.882 316.013L243.211 320.612L241.379 320.733ZM245.874 318.141L249.356 311.733L250.806 311.637L251.365 320.071L249.915 320.167L249.507 314.017L246.025 320.425L244.591 320.52L244.032 312.086L245.466 311.991L245.874 318.141Z" fill="black"/>
<path d="M175 312C174.586 312 174.25 312.336 174.25 312.75V315.25C174.25 315.664 174.586 316 175 316C175.414 316 175.75 315.664 175.75 315.25V313.543C178.982 313.916 181.5 316.669 181.5 320C181.5 323.584 178.584 326.5 175 326.5C171.416 326.5 168.5 323.584 168.5 320C168.5 318.264 169.176 316.631 170.404 315.404C170.697 315.111 170.697 314.636 170.404 314.343C170.111 314.05 169.636 314.05 169.343 314.343C167.832 315.854 167 317.863 167 320C167 324.411 170.589 328 175 328C179.411 328 183 324.411 183 320C183 315.589 179.411 312 175 312Z" fill="#212121"/>
<path d="M174.471 320.531C174.617 320.677 174.809 320.751 175.001 320.751C175.193 320.751 175.385 320.678 175.531 320.531C175.824 320.238 175.824 319.763 175.531 319.47L172.281 316.22C171.988 315.927 171.513 315.927 171.22 316.22C170.927 316.513 170.927 316.988 171.22 317.281L174.47 320.531H174.471Z" fill="#212121"/>
<circle cx="259" cy="177" r="62.5" stroke="black"/>
<rect x="54.6719" y="248.961" width="112" height="48" rx="24" transform="rotate(4.73352 54.6719 248.961)" fill="white"/>
<rect x="54.6719" y="248.961" width="112" height="48" rx="24" transform="rotate(4.73352 54.6719 248.961)" stroke="black"/>
<path d="M72.8236 276.278L76.4485 268.951L78.1769 269.094L73.3852 278.206C73.2491 278.462 73.1007 278.708 72.9399 278.946C72.7795 279.178 72.5902 279.382 72.3719 279.557C72.1535 279.732 71.8891 279.865 71.5786 279.954C71.2733 280.044 70.9 280.07 70.4588 280.034C70.3342 280.023 70.187 280.003 70.017 279.973C69.8465 279.949 69.736 279.927 69.6854 279.907L69.8314 278.712C69.8876 278.727 69.9984 278.746 70.1636 278.771C70.3293 278.789 70.451 278.802 70.5289 278.809C70.8248 278.833 71.0633 278.793 71.2444 278.688C71.4256 278.582 71.5756 278.443 71.6945 278.27C71.819 278.092 71.9333 277.911 72.0374 277.726L72.8236 276.278ZM70.905 268.492L73.4735 275.815L73.7318 277.239L72.4628 277.228L69.2232 268.353L70.905 268.492ZM80.3728 272.208L81.8132 272.327L81.4275 275.47C81.3302 276.267 81.1822 276.95 80.9835 277.519C80.7848 278.087 80.5518 278.567 80.2842 278.958C80.0171 279.343 79.7268 279.662 79.4134 279.913C79.1051 280.164 78.7901 280.371 78.4684 280.532L77.7521 280.473L77.8884 279.3L78.1849 279.317C78.373 279.129 78.5563 278.935 78.7348 278.736C78.9137 278.531 79.083 278.286 79.2424 278.001C79.4023 277.712 79.5442 277.355 79.6681 276.931C79.7976 276.503 79.9014 275.976 79.9793 275.35L80.3728 272.208ZM80.731 272.237L85.7995 272.657L85.102 281.081L83.6616 280.962L84.2489 273.869L80.6207 273.569L80.731 272.237ZM77.5231 279.262L86.2822 279.988L85.9786 283.655L84.5382 283.536L84.7438 281.052L78.8655 280.565L78.6598 283.049L77.2117 282.929L77.5231 279.262ZM87.7399 277.153L87.7547 276.974C87.805 276.367 87.9398 275.811 88.1593 275.306C88.3792 274.797 88.6711 274.364 89.0351 274.007C89.3996 273.645 89.8268 273.377 90.3167 273.204C90.8071 273.025 91.3456 272.96 91.9321 273.008C92.5238 273.057 93.0468 273.21 93.5011 273.467C93.9611 273.72 94.341 274.054 94.6409 274.471C94.9465 274.883 95.1659 275.359 95.2989 275.897C95.4324 276.431 95.474 277.002 95.4237 277.609L95.4089 277.788C95.3586 278.395 95.2238 278.951 95.0043 279.456C94.7848 279.96 94.4903 280.393 94.1207 280.754C93.7567 281.111 93.3295 281.379 92.8391 281.558C92.3543 281.732 91.8161 281.794 91.2243 281.745C90.6326 281.696 90.1094 281.546 89.6547 281.294C89.2004 281.037 88.8204 280.702 88.5149 280.29C88.2149 279.873 87.9982 279.398 87.8647 278.864C87.7312 278.331 87.6896 277.76 87.7399 277.153ZM89.1951 277.093L89.1802 277.272C89.1454 277.693 89.1618 278.094 89.2295 278.476C89.2976 278.852 89.4185 279.192 89.5921 279.493C89.7709 279.796 90.0039 280.042 90.2912 280.233C90.579 280.419 90.9227 280.529 91.3223 280.562C91.7168 280.594 92.0686 280.543 92.3778 280.406C92.6926 280.265 92.9605 280.06 93.1814 279.791C93.4022 279.522 93.5773 279.207 93.7064 278.846C93.8411 278.481 93.9259 278.088 93.9607 277.668L93.9756 277.489C94.01 277.074 93.9905 276.678 93.9172 276.3C93.8495 275.919 93.7263 275.576 93.5475 275.274C93.3743 274.967 93.1441 274.718 92.8568 274.527C92.5747 274.337 92.2338 274.225 91.8341 274.192C91.4396 274.159 91.085 274.213 90.7702 274.354C90.4606 274.496 90.1925 274.704 89.966 274.978C89.7451 275.247 89.5699 275.564 89.4403 275.93C89.3112 276.29 89.2294 276.678 89.1951 277.093ZM103.279 270.412L104.462 270.51C104.42 271.019 104.309 271.417 104.128 271.706C103.948 271.988 103.716 272.199 103.433 272.338C103.155 272.477 102.844 272.574 102.499 272.629C102.16 272.684 101.809 272.736 101.444 272.785C100.99 272.841 100.562 272.955 100.161 273.125C99.7662 273.291 99.416 273.544 99.1108 273.885C98.8108 274.226 98.5719 274.682 98.394 275.252C98.2213 275.823 98.128 276.539 98.1142 277.401L98.0549 278.117L96.8714 278.019L96.9307 277.303C97.0102 276.342 97.1705 275.512 97.4115 274.81C97.6576 274.109 97.9698 273.526 98.3481 273.061C98.7263 272.596 99.1584 272.237 99.6444 271.985C100.136 271.733 100.666 271.576 101.236 271.513C101.647 271.469 102.002 271.414 102.3 271.35C102.598 271.281 102.829 271.175 102.992 271.031C103.161 270.889 103.256 270.682 103.279 270.412ZM101.23 274.421C101.78 274.466 102.263 274.603 102.678 274.831C103.093 275.059 103.436 275.356 103.709 275.724C103.982 276.091 104.177 276.515 104.294 276.995C104.416 277.47 104.455 277.98 104.41 278.525L104.396 278.697C104.347 279.283 104.216 279.821 104.004 280.311C103.796 280.795 103.513 281.211 103.156 281.557C102.803 281.899 102.385 282.155 101.901 282.324C101.421 282.493 100.886 282.553 100.294 282.504C99.7025 282.455 99.1816 282.307 98.7317 282.061C98.2869 281.815 97.9163 281.495 97.6198 281.099C97.3237 280.698 97.1107 280.241 96.9807 279.729C96.8563 279.212 96.8183 278.66 96.8669 278.073L96.8811 277.902C96.8918 277.772 96.9257 277.647 96.9827 277.526C97.0398 277.406 97.1074 277.283 97.1856 277.159C97.269 277.035 97.3453 276.903 97.4144 276.762C97.6452 276.311 97.9432 275.9 98.3085 275.527C98.679 275.156 99.1079 274.867 99.5952 274.662C100.088 274.452 100.633 274.371 101.23 274.421ZM100.852 275.573C100.323 275.53 99.8769 275.615 99.5141 275.831C99.1565 276.047 98.8779 276.351 98.6783 276.742C98.4791 277.128 98.3602 277.554 98.3215 278.021L98.3073 278.193C98.2746 278.587 98.2904 278.965 98.3546 279.325C98.4188 279.686 98.5329 280.012 98.697 280.302C98.8667 280.588 99.0905 280.821 99.3682 281.001C99.6512 281.181 99.9925 281.288 100.392 281.321C100.792 281.354 101.143 281.304 101.447 281.173C101.751 281.041 102.007 280.848 102.216 280.594C102.426 280.334 102.592 280.032 102.715 279.686C102.837 279.341 102.915 278.971 102.948 278.577L102.962 278.406C102.991 278.053 102.972 277.714 102.905 277.39C102.838 277.065 102.718 276.773 102.546 276.513C102.38 276.254 102.154 276.042 101.87 275.877C101.591 275.708 101.252 275.606 100.852 275.573ZM109.16 282.039C109.502 282.067 109.825 282.023 110.127 281.907C110.429 281.791 110.684 281.619 110.891 281.39C111.098 281.157 111.228 280.883 111.28 280.568L112.651 280.682C112.584 281.178 112.376 281.628 112.029 282.033C111.688 282.434 111.257 282.746 110.737 282.969C110.217 283.187 109.659 283.272 109.062 283.222C108.428 283.17 107.885 283.012 107.431 282.75C106.982 282.488 106.618 282.15 106.339 281.735C106.065 281.32 105.871 280.855 105.757 280.338C105.649 279.817 105.618 279.274 105.665 278.708L105.692 278.381C105.739 277.815 105.858 277.287 106.051 276.796C106.248 276.3 106.517 275.87 106.855 275.506C107.199 275.142 107.613 274.868 108.099 274.684C108.59 274.5 109.152 274.434 109.785 274.486C110.444 274.541 111.009 274.724 111.48 275.034C111.951 275.34 112.308 275.735 112.55 276.221C112.798 276.701 112.91 277.233 112.888 277.816L111.518 277.703C111.521 277.353 111.448 277.031 111.3 276.736C111.157 276.442 110.947 276.2 110.67 276.01C110.399 275.815 110.071 275.702 109.687 275.67C109.246 275.633 108.867 275.691 108.552 275.842C108.242 275.989 107.986 276.203 107.785 276.485C107.59 276.761 107.438 277.075 107.331 277.427C107.229 277.774 107.163 278.131 107.132 278.5L107.105 278.827C107.075 279.196 107.081 279.562 107.124 279.926C107.167 280.29 107.262 280.625 107.409 280.93C107.562 281.235 107.779 281.488 108.06 281.689C108.347 281.885 108.713 282.002 109.16 282.039ZM118.181 275.338L117.483 283.763L116.035 283.643L116.733 275.219L118.181 275.338ZM121.007 275.573L120.91 276.74L113.864 276.157L113.961 274.989L121.007 275.573ZM125.989 280.736L123.225 280.507L123.305 279.353L125.562 279.54C126.009 279.577 126.384 279.564 126.687 279.5C126.995 279.437 127.232 279.323 127.397 279.159C127.562 278.995 127.656 278.783 127.677 278.524C127.694 278.321 127.664 278.141 127.588 277.983C127.518 277.821 127.402 277.683 127.239 277.57C127.076 277.452 126.869 277.359 126.619 277.291C126.374 277.219 126.083 277.169 125.745 277.141L123.9 276.988L123.299 284.244L121.859 284.125L122.557 275.701L125.842 275.973C126.377 276.017 126.853 276.104 127.271 276.232C127.694 276.361 128.048 276.534 128.333 276.751C128.624 276.964 128.838 277.222 128.975 277.526C129.112 277.83 129.164 278.179 129.131 278.573C129.11 278.828 129.038 279.065 128.915 279.285C128.793 279.504 128.623 279.694 128.406 279.854C128.189 280.014 127.927 280.138 127.622 280.228C127.317 280.313 126.971 280.354 126.585 280.354L125.989 280.736ZM125.682 284.442L122.396 284.17L123.209 283.061L125.779 283.274C126.178 283.307 126.515 283.285 126.787 283.208C127.061 283.126 127.27 282.997 127.415 282.821C127.566 282.64 127.652 282.418 127.674 282.153C127.696 281.888 127.648 281.657 127.528 281.459C127.414 281.256 127.229 281.094 126.972 280.974C126.716 280.848 126.388 280.769 125.989 280.736L123.801 280.554L123.912 279.403L126.645 279.63L127.13 280.109C127.589 280.183 127.972 280.33 128.278 280.549C128.583 280.768 128.807 281.032 128.949 281.341C129.091 281.646 129.148 281.969 129.119 282.312C129.087 282.706 128.983 283.048 128.807 283.336C128.637 283.625 128.403 283.86 128.106 284.039C127.81 284.213 127.457 284.335 127.049 284.406C126.641 284.471 126.185 284.483 125.682 284.442ZM130.811 280.719L130.826 280.54C130.876 279.933 131.011 279.377 131.231 278.873C131.451 278.363 131.742 277.93 132.106 277.573C132.471 277.212 132.898 276.944 133.388 276.77C133.878 276.591 134.417 276.526 135.003 276.575C135.595 276.624 136.118 276.777 136.572 277.034C137.032 277.286 137.412 277.621 137.712 278.038C138.018 278.45 138.237 278.925 138.37 279.464C138.504 279.998 138.545 280.568 138.495 281.175L138.48 281.354C138.43 281.962 138.295 282.518 138.076 283.022C137.856 283.527 137.562 283.959 137.192 284.321C136.828 284.677 136.401 284.945 135.91 285.124C135.426 285.298 134.887 285.361 134.296 285.312C133.704 285.263 133.181 285.112 132.726 284.86C132.272 284.603 131.892 284.269 131.586 283.857C131.286 283.44 131.07 282.965 130.936 282.431C130.803 281.897 130.761 281.327 130.811 280.719ZM132.266 280.66L132.252 280.839C132.217 281.259 132.233 281.66 132.301 282.042C132.369 282.419 132.49 282.758 132.663 283.06C132.842 283.362 133.075 283.609 133.363 283.8C133.65 283.986 133.994 284.095 134.394 284.128C134.788 284.161 135.14 284.109 135.449 283.973C135.764 283.831 136.032 283.626 136.253 283.357C136.474 283.088 136.649 282.773 136.778 282.413C136.912 282.048 136.997 281.655 137.032 281.235L137.047 281.055C137.081 280.64 137.062 280.244 136.989 279.867C136.921 279.485 136.798 279.143 136.619 278.841C136.446 278.534 136.215 278.285 135.928 278.094C135.646 277.903 135.305 277.791 134.905 277.758C134.511 277.725 134.156 277.78 133.842 277.921C133.532 278.062 133.264 278.27 133.037 278.544C132.816 278.813 132.641 279.131 132.512 279.496C132.383 279.857 132.301 280.244 132.266 280.66Z" fill="black"/>
<rect x="371.376" y="228.233" width="112" height="48" rx="24" transform="rotate(-5.75205 371.376 228.233)" fill="white"/>
<rect x="371.376" y="228.233" width="112" height="48" rx="24" transform="rotate(-5.75205 371.376 228.233)" stroke="black"/>
<path d="M392.369 253.146L397.064 243.863L398.564 243.712L399.704 255.029L398.204 255.18L397.325 246.451L392.631 255.742L391.138 255.892L389.998 244.574L391.491 244.424L392.369 253.146ZM407.44 249.437L407.558 250.603L403.112 251.051L402.994 249.885L407.44 249.437ZM402.93 246.209L403.777 254.619L402.339 254.764L401.492 246.353L402.93 246.209ZM408.239 245.674L409.086 254.084L407.641 254.23L406.793 245.819L408.239 245.674ZM413.984 245.095L414.831 253.506L413.385 253.651L412.538 245.241L413.984 245.095ZM416.805 244.811L416.923 245.977L409.888 246.685L409.771 245.519L416.805 244.811ZM421.951 252.945C421.366 253.004 420.824 252.959 420.328 252.811C419.836 252.656 419.401 252.415 419.022 252.086C418.649 251.757 418.346 251.353 418.115 250.874C417.883 250.395 417.738 249.86 417.678 249.269L417.645 248.943C417.577 248.259 417.616 247.64 417.765 247.086C417.912 246.526 418.141 246.043 418.451 245.634C418.76 245.226 419.126 244.904 419.547 244.668C419.968 244.432 420.414 244.29 420.886 244.243C421.487 244.182 422.016 244.234 422.472 244.397C422.933 244.56 423.323 244.814 423.64 245.159C423.957 245.499 424.208 245.913 424.394 246.402C424.578 246.886 424.701 247.423 424.76 248.014L424.825 248.659L418.544 249.292L418.426 248.118L423.269 247.63L423.258 247.522C423.2 247.151 423.085 246.796 422.915 246.457C422.75 246.117 422.513 245.848 422.206 245.649C421.898 245.45 421.497 245.375 421.005 245.424C420.679 245.457 420.385 245.557 420.125 245.725C419.863 245.887 419.648 246.113 419.478 246.403C419.308 246.692 419.189 247.036 419.119 247.436C419.049 247.836 419.04 248.289 419.091 248.797L419.124 249.124C419.164 249.523 419.257 249.893 419.401 250.234C419.55 250.57 419.744 250.859 419.983 251.102C420.227 251.345 420.51 251.525 420.831 251.645C421.157 251.764 421.517 251.804 421.911 251.764C422.418 251.713 422.838 251.566 423.17 251.323C423.501 251.08 423.782 250.772 424.011 250.398L424.951 251.002C424.797 251.295 424.593 251.58 424.338 251.857C424.084 252.134 423.759 252.371 423.366 252.567C422.977 252.764 422.506 252.89 421.951 252.945ZM427.641 245.353L428.651 255.38L427.205 255.526L426.032 243.881L427.353 243.748L427.641 245.353ZM433.561 247.3L433.577 247.464C433.639 248.075 433.624 248.65 433.531 249.188C433.438 249.721 433.271 250.193 433.03 250.605C432.794 251.016 432.485 251.348 432.102 251.601C431.719 251.854 431.266 252.007 430.743 252.06C430.209 252.114 429.728 252.073 429.301 251.938C428.874 251.803 428.501 251.582 428.182 251.273C427.863 250.965 427.594 250.584 427.376 250.13C427.163 249.675 426.995 249.155 426.873 248.571L426.786 247.7C426.785 247.072 426.846 246.503 426.967 245.994C427.089 245.484 427.272 245.042 427.517 244.666C427.766 244.285 428.084 243.984 428.47 243.762C428.855 243.534 429.312 243.394 429.841 243.341C430.369 243.287 430.849 243.344 431.279 243.51C431.709 243.671 432.083 243.926 432.401 244.276C432.718 244.627 432.974 245.059 433.167 245.573C433.365 246.082 433.496 246.658 433.561 247.3ZM432.132 247.609L432.115 247.446C432.073 247.026 431.989 246.637 431.864 246.278C431.738 245.914 431.568 245.601 431.353 245.34C431.143 245.073 430.888 244.874 430.586 244.742C430.285 244.605 429.937 244.556 429.543 244.596C429.18 244.632 428.871 244.726 428.614 244.878C428.362 245.029 428.153 245.22 427.988 245.451C427.823 245.677 427.694 245.931 427.602 246.212C427.514 246.488 427.456 246.771 427.428 247.062L427.631 249.075C427.771 249.428 427.951 249.755 428.17 250.058C428.388 250.355 428.663 250.586 428.993 250.752C429.324 250.912 429.724 250.969 430.196 250.921C430.585 250.882 430.911 250.768 431.175 250.579C431.443 250.385 431.653 250.136 431.806 249.833C431.964 249.529 432.068 249.189 432.119 248.812C432.17 248.43 432.174 248.029 432.132 247.609ZM445.087 246.359L445.104 246.522C445.163 247.113 445.153 247.664 445.074 248.174C444.994 248.68 444.843 249.127 444.62 249.516C444.403 249.904 444.115 250.218 443.757 250.458C443.399 250.693 442.971 250.836 442.473 250.886C442.064 250.927 441.698 250.909 441.376 250.832C441.054 250.749 440.773 250.612 440.534 250.422C440.3 250.231 440.104 249.994 439.944 249.712C439.79 249.424 439.67 249.096 439.586 248.727L439.21 244.996C439.217 244.592 439.266 244.226 439.359 243.897C439.456 243.568 439.6 243.282 439.79 243.037C439.985 242.793 440.23 242.595 440.524 242.445C440.817 242.295 441.169 242.2 441.578 242.158C441.982 242.118 442.352 242.154 442.688 242.266C443.029 242.373 443.334 242.547 443.605 242.787C443.88 243.026 444.117 243.324 444.315 243.681C444.518 244.032 444.684 244.434 444.813 244.887C444.943 245.34 445.034 245.831 445.087 246.359ZM443.666 246.667L443.649 246.504C443.613 246.141 443.552 245.799 443.467 245.478C443.387 245.151 443.282 244.855 443.15 244.591C443.024 244.321 442.87 244.091 442.688 243.9C442.506 243.709 442.296 243.568 442.056 243.476C441.822 243.385 441.56 243.354 441.27 243.383C440.959 243.414 440.704 243.479 440.504 243.578C440.31 243.676 440.162 243.796 440.061 243.937C439.96 244.072 439.89 244.213 439.852 244.358L440.343 249.232C440.417 249.34 440.519 249.439 440.648 249.531C440.777 249.617 440.946 249.684 441.155 249.731C441.364 249.773 441.621 249.778 441.927 249.748C442.289 249.711 442.59 249.608 442.83 249.437C443.074 249.26 443.263 249.032 443.397 248.752C443.536 248.471 443.624 248.153 443.662 247.798C443.705 247.443 443.706 247.066 443.666 246.667ZM435.115 247.529L435.099 247.365C435.045 246.837 435.037 246.338 435.074 245.868C435.11 245.399 435.193 244.971 435.321 244.587C435.45 244.197 435.622 243.858 435.839 243.569C436.061 243.279 436.326 243.049 436.633 242.876C436.945 242.698 437.303 242.589 437.707 242.548C438.106 242.508 438.459 242.533 438.767 242.622C439.079 242.711 439.351 242.857 439.58 243.059C439.81 243.26 440.003 243.513 440.159 243.817C440.315 244.12 440.439 244.469 440.532 244.863L440.892 248.446C440.885 248.845 440.836 249.208 440.743 249.537C440.651 249.866 440.512 250.154 440.328 250.403C440.143 250.647 439.904 250.844 439.61 250.994C439.322 251.143 438.975 251.238 438.571 251.279C438.073 251.329 437.626 251.275 437.228 251.116C436.829 250.952 436.482 250.702 436.186 250.365C435.896 250.028 435.658 249.62 435.474 249.141C435.294 248.657 435.175 248.119 435.115 247.529ZM436.545 247.22L436.561 247.383C436.601 247.782 436.672 248.152 436.775 248.492C436.882 248.832 437.024 249.126 437.201 249.376C437.383 249.624 437.606 249.811 437.87 249.936C438.134 250.056 438.447 250.098 438.809 250.062C439.12 250.03 439.373 249.966 439.567 249.868C439.762 249.769 439.912 249.652 440.019 249.516C440.125 249.379 440.203 249.241 440.252 249.1L439.775 244.366C439.709 244.231 439.61 244.108 439.478 243.995C439.351 243.877 439.183 243.79 438.973 243.732C438.763 243.675 438.5 243.662 438.184 243.694C437.821 243.73 437.522 243.85 437.285 244.051C437.049 244.253 436.869 244.515 436.744 244.836C436.625 245.157 436.549 245.523 436.517 245.935C436.49 246.34 436.499 246.769 436.545 247.22ZM440.046 254.232L438.518 239.059L439.964 238.913L441.492 254.086L440.046 254.232ZM450.883 250.031C450.297 250.09 449.756 250.045 449.26 249.896C448.768 249.742 448.332 249.5 447.954 249.172C447.58 248.843 447.278 248.439 447.047 247.96C446.815 247.481 446.67 246.946 446.61 246.355L446.577 246.028C446.508 245.344 446.548 244.725 446.696 244.171C446.844 243.612 447.073 243.128 447.382 242.72C447.692 242.312 448.058 241.99 448.479 241.754C448.9 241.518 449.346 241.376 449.818 241.328C450.419 241.268 450.948 241.319 451.404 241.483C451.865 241.646 452.254 241.9 452.572 242.245C452.889 242.584 453.14 242.999 453.325 243.488C453.51 243.972 453.632 244.509 453.692 245.1L453.757 245.745L447.476 246.378L447.358 245.204L452.201 244.716L452.19 244.607C452.131 244.236 452.017 243.881 451.847 243.542C451.682 243.203 451.445 242.934 451.137 242.735C450.829 242.535 450.429 242.46 449.937 242.51C449.61 242.543 449.317 242.643 449.056 242.811C448.795 242.973 448.58 243.199 448.41 243.488C448.24 243.778 448.12 244.122 448.051 244.522C447.981 244.921 447.972 245.375 448.023 245.883L448.056 246.209C448.096 246.608 448.188 246.979 448.333 247.32C448.482 247.656 448.676 247.945 448.915 248.188C449.159 248.43 449.442 248.611 449.762 248.731C450.089 248.85 450.449 248.889 450.842 248.85C451.35 248.798 451.77 248.651 452.101 248.409C452.433 248.166 452.713 247.858 452.943 247.484L453.883 248.088C453.729 248.381 453.525 248.666 453.27 248.943C453.015 249.22 452.691 249.456 452.297 249.653C451.909 249.849 451.437 249.975 450.883 250.031ZM457.144 246.943L460.405 240.419L461.851 240.273L462.698 248.684L461.252 248.83L460.634 242.697L457.373 249.22L455.943 249.364L455.096 240.954L456.526 240.81L457.144 246.943ZM459.313 237.451L460.479 237.334C460.52 237.738 460.463 238.107 460.308 238.442C460.153 238.772 459.91 239.042 459.581 239.254C459.251 239.465 458.848 239.594 458.372 239.642C457.651 239.715 457.062 239.581 456.604 239.239C456.15 238.892 455.892 238.413 455.831 237.802L456.997 237.684C457.027 237.99 457.143 238.251 457.342 238.466C457.542 238.682 457.854 238.768 458.279 238.725C458.694 238.683 458.977 238.537 459.13 238.286C459.283 238.035 459.344 237.757 459.313 237.451ZM468.269 247.086C468.611 247.052 468.92 246.95 469.196 246.781C469.472 246.612 469.691 246.396 469.853 246.134C470.015 245.866 470.093 245.573 470.087 245.254L471.455 245.116C471.479 245.617 471.357 246.097 471.09 246.559C470.827 247.014 470.46 247.4 469.989 247.714C469.518 248.023 468.984 248.208 468.388 248.268C467.756 248.332 467.193 248.276 466.699 248.1C466.21 247.925 465.79 247.658 465.44 247.301C465.095 246.943 464.82 246.52 464.614 246.033C464.412 245.541 464.283 245.012 464.226 244.447L464.193 244.12C464.137 243.556 464.158 243.014 464.258 242.496C464.362 241.973 464.547 241.501 464.814 241.082C465.086 240.662 465.444 240.317 465.887 240.047C466.337 239.777 466.877 239.61 467.509 239.546C468.168 239.48 468.756 239.557 469.276 239.777C469.795 239.991 470.217 240.315 470.544 240.748C470.875 241.176 471.082 241.678 471.167 242.256L469.799 242.394C469.738 242.049 469.608 241.746 469.408 241.483C469.214 241.22 468.964 241.02 468.657 240.883C468.355 240.741 468.012 240.689 467.629 240.728C467.188 240.772 466.826 240.898 466.544 241.104C466.265 241.305 466.053 241.562 465.907 241.875C465.765 242.182 465.673 242.519 465.631 242.884C465.594 243.244 465.594 243.608 465.631 243.976L465.664 244.302C465.701 244.67 465.774 245.029 465.883 245.379C465.991 245.73 466.146 246.041 466.346 246.314C466.551 246.587 466.811 246.796 467.124 246.943C467.442 247.083 467.823 247.131 468.269 247.086Z" fill="black"/>
<path d="M100.398 251.691C115.554 250.773 132.247 246.876 146.158 240.733C161.399 234.003 172.841 221.548 184.933 210.508" stroke="#23B6FF" stroke-linecap="round"/>
<path d="M323.656 227.848C331.715 228.445 341.059 232.189 347.469 237.12C352.468 240.965 356.39 247.071 359.963 252.233" stroke="#23B6FF" stroke-linecap="round"/>
<path d="M326.908 227.306C335.826 226.918 344.929 225.668 353.581 223.513C363.94 220.932 372.896 218.215 380.435 210.266C385.392 205.04 389.982 198.178 391.694 191.059C392.591 187.332 388.951 186.55 385.703 185.972C381.492 185.222 376.144 185.725 373.089 189.133C370.301 192.243 370.493 198.469 370.892 202.319C371.684 209.983 380.848 215.866 386.697 219.418C392.516 222.953 398.241 224.596 404.94 224.596" stroke="#23B6FF" stroke-linecap="round"/>
<path d="M441.789 277.701C447.915 278.722 454.453 285.368 458.889 289.261C464.804 294.454 467.74 300.41 471.051 307.505" stroke="#23B6FF" stroke-linecap="round"/>
<path d="M184.39 218.094C184.258 220.992 183.372 223.775 183.005 226.644C182.184 233.068 182.329 240.63 183.698 246.904C186.306 258.86 193.62 269.707 200.858 279.357C205.043 284.938 209.144 287.534 215.278 290.707" stroke="#23B6FF" stroke-linecap="round"/>
<path d="M37.5386 292.874C31.0995 279.58 25.7071 263.824 27.8448 248.86C30.6615 229.143 44.1823 208.928 62.5257 200.572C84.604 190.515 112.165 194.205 134.958 199.669C146.341 202.397 157.925 207.797 169.76 207.797" stroke="#23B6FF" stroke-linecap="round"/>
<path d="M260 31C263.314 31 266 28.3137 266 25C266 21.6863 263.314 19 260 19C256.686 19 254 21.6863 254 25C254 28.3137 256.686 31 260 31Z" stroke="#212121" stroke-linecap="round" stroke-linejoin="round"/>
<path d="M247 42C249.552 37.2066 254.196 34 259.5 34C264.804 34 269.448 37.2066 272 42" stroke="#212121" stroke-linecap="round" stroke-linejoin="round"/>
<path d="M260.145 51.3535C260.145 51.0774 259.921 50.8535 259.645 50.8535C259.368 50.8535 259.145 51.0774 259.145 51.3535H260.145ZM259.291 104.842C259.486 105.037 259.803 105.037 259.998 104.842L263.18 101.66C263.375 101.464 263.375 101.148 263.18 100.952C262.985 100.757 262.668 100.757 262.473 100.952L259.645 103.781L256.816 100.952C256.621 100.757 256.304 100.757 256.109 100.952C255.914 101.148 255.914 101.464 256.109 101.66L259.291 104.842ZM259.145 51.3535V104.488H260.145V51.3535H259.145Z" fill="black"/>
<circle cx="259.5" cy="75.5" r="11.5" fill="#23B6FF"/>
<circle cx="240.5" cy="132.5" r="11.5" fill="#23B6FF"/>
<circle cx="276.5" cy="179.5" r="11.5" fill="#23B6FF"/>
<circle cx="270" cy="149" r="18" fill="#23B6FF"/>
<circle cx="240" cy="198" r="18" fill="#23B6FF"/>
<circle cx="232.5" cy="163.5" r="15.5" fill="#23B6FF"/>
<circle cx="256" cy="174" r="8" fill="#23B6FF"/>
<circle cx="269" cy="201" r="8" fill="#23B6FF"/>
<circle cx="261.5" cy="187.5" r="4.5" fill="#23B6FF"/>
<path d="M238.549 180.62V182H228.863V180.62H238.549ZM229.136 180.62V185.146H227.457L227.448 180.62H229.136ZM240.025 180.62L240.008 185.138H238.329V180.62H240.025ZM236.888 169.203V170.592H231.28V169.203H236.888ZM238.347 169.203V182H236.659V169.203H238.347ZM230.7 169.203H232.396L232.133 174.354C232.098 175.127 232.024 175.842 231.913 176.498C231.802 177.148 231.664 177.743 231.5 178.282C231.336 178.821 231.148 179.305 230.938 179.732C230.727 180.154 230.501 180.521 230.261 180.831C230.021 181.136 229.769 181.388 229.505 181.587C229.247 181.78 228.986 181.918 228.723 182H227.949V180.62H228.494C228.646 180.456 228.819 180.219 229.013 179.908C229.212 179.598 229.408 179.196 229.602 178.704C229.801 178.206 229.974 177.6 230.12 176.885C230.272 176.17 230.375 175.326 230.428 174.354L230.7 169.203ZM243.532 179.425L247.918 172.49H249.553V182H247.918V175.065L243.532 182H241.915V172.49H243.532V179.425ZM255.714 177.456H253.965V176.454H255.582C256.033 176.454 256.391 176.398 256.654 176.287C256.918 176.17 257.105 176.009 257.217 175.804C257.328 175.599 257.384 175.358 257.384 175.083C257.384 174.837 257.319 174.605 257.19 174.389C257.067 174.166 256.868 173.987 256.593 173.853C256.317 173.712 255.948 173.642 255.485 173.642C255.11 173.642 254.771 173.709 254.466 173.844C254.161 173.973 253.918 174.151 253.736 174.38C253.561 174.603 253.473 174.854 253.473 175.136H251.847C251.847 174.556 252.011 174.058 252.339 173.642C252.673 173.22 253.115 172.895 253.666 172.666C254.223 172.438 254.829 172.323 255.485 172.323C256.036 172.323 256.528 172.385 256.962 172.508C257.401 172.625 257.773 172.801 258.078 173.035C258.383 173.264 258.614 173.551 258.772 173.896C258.937 174.236 259.019 174.632 259.019 175.083C259.019 175.405 258.942 175.71 258.79 175.997C258.638 176.284 258.418 176.539 258.131 176.762C257.844 176.979 257.495 177.148 257.085 177.271C256.681 177.395 256.224 177.456 255.714 177.456ZM253.965 176.841H255.714C256.282 176.841 256.783 176.896 257.217 177.008C257.65 177.113 258.014 177.271 258.307 177.482C258.6 177.693 258.819 177.954 258.966 178.265C259.118 178.569 259.194 178.921 259.194 179.319C259.194 179.765 259.104 180.166 258.922 180.523C258.746 180.875 258.494 181.174 258.166 181.42C257.838 181.666 257.445 181.854 256.988 181.982C256.537 182.111 256.036 182.176 255.485 182.176C254.87 182.176 254.272 182.07 253.692 181.859C253.112 181.648 252.635 181.323 252.26 180.884C251.885 180.438 251.697 179.873 251.697 179.188H253.323C253.323 179.475 253.414 179.747 253.596 180.005C253.777 180.263 254.029 180.471 254.352 180.629C254.68 180.787 255.058 180.866 255.485 180.866C255.942 180.866 256.323 180.796 256.628 180.655C256.933 180.515 257.161 180.327 257.313 180.093C257.472 179.858 257.551 179.604 257.551 179.328C257.551 178.971 257.48 178.684 257.34 178.467C257.199 178.25 256.982 178.092 256.689 177.992C256.402 177.887 256.033 177.834 255.582 177.834H253.965V176.841ZM266.911 180.374V175.479C266.911 175.104 266.835 174.778 266.683 174.503C266.536 174.222 266.313 174.005 266.015 173.853C265.716 173.7 265.347 173.624 264.907 173.624C264.497 173.624 264.137 173.694 263.826 173.835C263.521 173.976 263.281 174.16 263.105 174.389C262.936 174.617 262.851 174.863 262.851 175.127H261.225C261.225 174.787 261.312 174.45 261.488 174.116C261.664 173.782 261.916 173.48 262.244 173.211C262.578 172.936 262.977 172.719 263.439 172.561C263.908 172.396 264.43 172.314 265.004 172.314C265.695 172.314 266.305 172.432 266.832 172.666C267.365 172.9 267.781 173.255 268.08 173.729C268.385 174.198 268.537 174.787 268.537 175.496V179.926C268.537 180.242 268.563 180.579 268.616 180.937C268.675 181.294 268.76 181.602 268.871 181.859V182H267.175C267.093 181.812 267.028 181.563 266.981 181.253C266.935 180.937 266.911 180.644 266.911 180.374ZM267.192 176.234L267.21 177.377H265.566C265.104 177.377 264.69 177.415 264.327 177.491C263.964 177.562 263.659 177.67 263.413 177.816C263.167 177.963 262.979 178.147 262.851 178.37C262.722 178.587 262.657 178.842 262.657 179.135C262.657 179.434 262.725 179.706 262.859 179.952C262.994 180.198 263.196 180.395 263.466 180.541C263.741 180.682 264.078 180.752 264.477 180.752C264.975 180.752 265.414 180.646 265.795 180.436C266.176 180.225 266.478 179.967 266.7 179.662C266.929 179.357 267.052 179.062 267.069 178.774L267.764 179.557C267.723 179.803 267.611 180.075 267.43 180.374C267.248 180.673 267.005 180.96 266.7 181.235C266.401 181.505 266.044 181.73 265.628 181.912C265.218 182.088 264.755 182.176 264.239 182.176C263.595 182.176 263.029 182.05 262.543 181.798C262.062 181.546 261.688 181.209 261.418 180.787C261.154 180.359 261.022 179.882 261.022 179.354C261.022 178.845 261.122 178.396 261.321 178.01C261.521 177.617 261.808 177.292 262.183 177.034C262.558 176.771 263.009 176.571 263.536 176.437C264.063 176.302 264.652 176.234 265.303 176.234H267.192ZM272.853 179.425L277.238 172.49H278.873V182H277.238V175.065L272.853 182H271.235V172.49H272.853V179.425ZM276.351 169.045H277.669C277.669 169.502 277.563 169.909 277.353 170.267C277.142 170.618 276.84 170.894 276.447 171.093C276.055 171.292 275.589 171.392 275.05 171.392C274.235 171.392 273.591 171.175 273.116 170.741C272.647 170.302 272.413 169.736 272.413 169.045H273.731C273.731 169.391 273.831 169.695 274.03 169.959C274.229 170.223 274.569 170.354 275.05 170.354C275.519 170.354 275.853 170.223 276.052 169.959C276.251 169.695 276.351 169.391 276.351 169.045ZM287.935 176.612V177.931H282.907V176.612H287.935ZM283.25 172.49V182H281.624V172.49H283.25ZM289.253 172.49V182H287.618V172.49H289.253Z" fill="black"/>
</g>
<defs>
<clipPath id="clip0_36_340">
<rect width="501" height="381" rx="32" fill="white"/>
</clipPath>
</defs>
</svg>
