<svg width="1334" height="261" viewBox="0 0 1334 261" fill="none" xmlns="http://www.w3.org/2000/svg">
<path d="M625.115 119.03C622.197 119.073 619.418 120.228 617.39 122.241C615.358 124.253 614.238 126.959 614.278 129.764C614.278 189.078 566.406 237.327 507.638 237.327C448.875 237.327 400.81 189.06 400.81 129.764C400.81 70.4686 448.686 22.2009 507.543 22.2009C510.457 22.1527 513.231 20.9958 515.259 18.9837C517.287 16.9716 518.402 14.2684 518.362 11.4666C518.402 8.66466 517.287 5.96149 515.259 3.9494C513.231 1.9373 510.457 0.780381 507.543 0.732178C436.763 0.732178 379.178 58.6171 379.178 129.764C379.178 200.911 436.763 258.796 507.543 258.796C578.325 258.796 635.933 200.911 635.933 129.764C635.974 126.962 634.854 124.259 632.831 122.247C630.803 120.235 628.028 119.078 625.115 119.03Z" fill="url(#paint0_linear_2004_5)" fill-opacity="0.5"/>
<path d="M812.535 0.732178C741.753 0.732178 684.168 58.6171 684.168 129.764C684.168 200.911 741.753 258.796 812.535 258.796C883.312 258.796 940.902 200.911 940.902 129.764C940.902 58.6171 883.389 0.732178 812.535 0.732178ZM919.171 129.764C919.171 189.078 871.298 237.327 812.535 237.327C753.767 237.327 705.894 189.06 705.894 129.764C705.894 70.4686 753.749 22.2009 812.535 22.2009C871.316 22.2009 919.342 70.4505 919.342 129.764H919.171Z" fill="url(#paint1_linear_2004_5)" fill-opacity="0.5"/>
<path d="M196.238 36.2175C165.313 12.1841 117.477 0.0209961 54.0839 0.0209961H11.0094C3.52556 0.0209961 0.116949 5.04011 0.116949 9.71121C0.116949 14.3823 3.52556 19.4197 11.0094 19.4197H54.0839C112.316 19.4197 155.334 30.1174 181.918 51.2199C204.484 68.9518 215.928 94.9449 215.928 128.467C215.928 161.989 204.503 187.982 181.88 205.732C155.334 226.816 112.336 237.514 54.0839 237.514H21.102V110.79C21.1442 109.482 20.9076 108.178 20.4069 106.961C19.9063 105.744 19.1521 104.638 18.1907 103.712C17.2293 102.785 16.0812 102.058 14.8167 101.574C13.5522 101.09 12.1983 100.86 10.838 100.898C9.43992 100.818 8.03957 101.015 6.72379 101.476C5.40806 101.938 4.20492 102.655 3.18901 103.582C2.1731 104.51 1.36609 105.628 0.817979 106.868C0.26987 108.108 -0.00764579 109.442 0.00269588 110.79V246.801C-0.0525646 249.114 0.743249 251.372 2.24972 253.176C3.31028 254.403 4.65523 255.373 6.17658 256.01C7.69789 256.646 9.35318 256.93 11.0094 256.839H54.0839C117.496 256.839 165.331 244.658 196.257 220.643C223.774 199.028 237.732 167.979 237.732 128.394C237.732 88.8084 223.774 57.8327 196.238 36.2175Z" fill="url(#paint2_linear_2004_5)" fill-opacity="0.5"/>
<path d="M307.645 0.0175386C306.249 -0.0628143 304.851 0.133528 303.538 0.594342C302.225 1.05511 301.023 1.77059 300.009 2.6963C298.995 3.62206 298.189 4.73835 297.642 5.97597C297.095 7.21354 296.818 8.5461 296.828 9.89093V247.017C296.828 249.718 297.944 252.309 299.93 254.219C301.915 256.129 304.608 257.202 307.416 257.202C310.224 257.202 312.917 256.129 314.903 254.219C316.889 252.309 318.004 249.718 318.004 247.017V9.89093C318.044 8.57606 317.803 7.26725 317.295 6.04582C316.788 4.82439 316.024 3.71636 315.053 2.79047C314.081 1.86462 312.923 1.14072 311.648 0.66372C310.374 0.18668 309.011 -0.0332469 307.645 0.0175386Z" fill="url(#paint3_linear_2004_5)" fill-opacity="0.5"/>
<path d="M1232.82 9.90906L1232.65 9.52438C1231.87 7.84536 1230.61 6.41889 1229 5.4176C1227.4 4.41627 1225.53 3.88306 1223.62 3.88246H1223.26C1221.25 3.86869 1219.29 4.48539 1217.68 5.63903C1216.07 6.79272 1214.89 8.42044 1214.33 10.2754L1161.35 135.296L1108.58 9.81747L1108.43 9.48776C1107.6 7.7824 1106.27 6.34538 1104.61 5.35055C1102.94 4.35575 1101.02 3.84583 1099.06 3.88246C1097.12 3.8878 1095.21 4.4426 1093.59 5.47811C1091.97 6.51362 1090.7 7.98425 1089.94 9.70755L990.593 246.266C989.775 247.544 989.343 249.015 989.339 250.516C989.285 252.751 990.045 254.935 991.483 256.693C992.918 258.451 994.946 259.675 997.216 260.155C999.487 260.635 1001.86 260.342 1003.93 259.325C1006 258.309 1007.64 256.633 1008.57 254.582L1099.08 39.4193L1150.61 160.996L1114.79 246.266C1113.97 247.543 1113.54 249.015 1113.53 250.516C1113.47 252.758 1114.23 254.949 1115.67 256.713C1117.11 258.477 1119.14 259.703 1121.42 260.182C1123.7 260.661 1126.08 260.362 1128.16 259.337C1130.23 258.312 1131.86 256.624 1132.79 254.564L1161.35 186.788L1189.91 254.564L1190.05 254.875C1191.01 256.895 1192.66 258.533 1194.74 259.515C1196.81 260.497 1199.17 260.761 1201.42 260.264C1203.67 259.767 1205.67 258.539 1207.09 256.786C1208.51 255.034 1209.26 252.865 1209.2 250.644C1209.21 249.15 1208.78 247.686 1207.97 246.413L1172.05 160.996L1223.6 39.4193L1314.04 254.436L1314.17 254.747C1315.13 256.767 1316.79 258.405 1318.86 259.387C1320.93 260.368 1323.29 260.633 1325.54 260.136C1327.79 259.638 1329.79 258.411 1331.21 256.658C1332.63 254.906 1333.37 252.736 1333.32 250.516V248.336L1232.82 9.90906Z" fill="url(#paint4_linear_2004_5)" fill-opacity="0.5"/>
<defs>
<linearGradient id="paint0_linear_2004_5" x1="507.556" y1="0.732178" x2="507.556" y2="258.796" gradientUnits="userSpaceOnUse">
<stop stop-color="#EEEEF2"/>
<stop offset="1" stop-color="#14A5FF"/>
</linearGradient>
<linearGradient id="paint1_linear_2004_5" x1="812.535" y1="0.732178" x2="812.535" y2="258.796" gradientUnits="userSpaceOnUse">
<stop stop-color="#F1F1F1"/>
<stop offset="1" stop-color="#80FFFF"/>
</linearGradient>
<linearGradient id="paint2_linear_2004_5" x1="118.866" y1="0.0209961" x2="118.866" y2="256.856" gradientUnits="userSpaceOnUse">
<stop stop-color="#F1F1F1"/>
<stop offset="1" stop-color="#4255FF"/>
</linearGradient>
<linearGradient id="paint3_linear_2004_5" x1="307.418" y1="0" x2="307.418" y2="257.202" gradientUnits="userSpaceOnUse">
<stop stop-color="#F1F1F1"/>
<stop offset="1" stop-color="#AD0BFB"/>
</linearGradient>
<linearGradient id="paint4_linear_2004_5" x1="1161.33" y1="3.88062" x2="1161.33" y2="260.509" gradientUnits="userSpaceOnUse">
<stop stop-color="#F1F1F1"/>
<stop offset="1" stop-color="#23B6FF"/>
</linearGradient>
</defs>
</svg>
